<?xml version="1.0" encoding="UTF-8" standalone="no"?>
<!-- Generator: Adobe Illustrator 19.0.0, SVG Export Plug-In . SVG Version: 6.00 Build 0)  -->

<svg
   xmlns:dc="http://purl.org/dc/elements/1.1/"
   xmlns:cc="http://creativecommons.org/ns#"
   xmlns:rdf="http://www.w3.org/1999/02/22-rdf-syntax-ns#"
   xmlns:svg="http://www.w3.org/2000/svg"
   xmlns="http://www.w3.org/2000/svg"
   xmlns:sodipodi="http://sodipodi.sourceforge.net/DTD/sodipodi-0.dtd"
   xmlns:inkscape="http://www.inkscape.org/namespaces/inkscape"
   version="1.1"
   id="Layer_1"
   x="0px"
   y="0px"
   viewBox="0 0 496 462.90958"
   xml:space="preserve"
   inkscape:version="0.91 r13725"
   sodipodi:docname="controller.svg"
   width="496"
   height="462.90958"><metadata
     id="metadata77"><rdf:RDF><cc:Work
         rdf:about=""><dc:format>image/svg+xml</dc:format><dc:type
           rdf:resource="http://purl.org/dc/dcmitype/StillImage" /><dc:title /></cc:Work></rdf:RDF></metadata><defs
     id="defs75" /><sodipodi:namedview
     pagecolor="#ffffff"
     bordercolor="#666666"
     borderopacity="1"
     objecttolerance="10"
     gridtolerance="10"
     guidetolerance="10"
     inkscape:pageopacity="0"
     inkscape:pageshadow="2"
     inkscape:window-width="828"
     inkscape:window-height="405"
     id="namedview73"
     showgrid="false"
     fit-margin-top="0"
     fit-margin-left="0"
     fit-margin-right="0"
     fit-margin-bottom="0"
     inkscape:zoom="2"
     inkscape:cx="120.24193"
     inkscape:cy="276.40849"
     inkscape:window-x="858"
     inkscape:window-y="546"
     inkscape:window-maximized="0"
     inkscape:current-layer="Layer_1" /><path
     style="fill:#4c5254"
     d="m 260.91638,185.76083 -24,0 0,-55.2 c 0,-14.4 -9.6,-25.6 -23.2,-25.6 -13.6,0 -24,8.8 -24,24.8 l -24,0 c 0,-24 20,-49.599996 47.2,-49.599996 27.2,0 47.2,22.399996 47.2,49.599996 l 0,56 0.8,0 z"
     id="path39"
     inkscape:connector-curvature="0" /><path
     style="fill:#3a2819"
     d="m 288,274.10959 c 0,7.2 -5.6,12.8 -12.8,12.8 l -53.6,0 c -7.2,0 -12.8,-5.6 -12.8,-12.8 l 0,-77.6 c 0,-7.2 5.6,-12.8 12.8,-12.8 l 53.6,0 c 7.2,0 12.8,5.6 12.8,12.8 l 0,77.6 z"
     id="path3"
     inkscape:connector-curvature="0" /><path
     style="fill:#a09d93"
     d="m 496,440.50959 c 0,10.4 -8,22.4 -18.4,22.4 l -459.2,0 c -10.4,0 -18.4,-12 -18.4,-22.4 l 0,-192.8 c 0,-10.4 8,-16.8 18.4,-16.8 l 459.2,0 c 10.4,0 18.4,6.4 18.4,16.8 l 0,192.8 z"
     id="path5"
     inkscape:connector-curvature="0" /><path
     style="fill:#d8d6ca"
     d="m 496,415.70959 c 0,10.4 -8,15.2 -18.4,15.2 l -459.2,0 c -10.4,0 -18.4,-4.8 -18.4,-15.2 l 0,-192.8 c 0,-10.4 8,-16 18.4,-16 l 459.2,0 c 10.4,0 18.4,5.6 18.4,16 l 0,192.8 z"
     id="path7"
     inkscape:connector-curvature="0" /><path
     style="fill:#c1bdae"
     d="m 16,206.90959 461.6,0 c 10.4,0 18.4,5.6 18.4,16 l 0,192.8 c 0,10.4 -8,15.2 -18.4,15.2"
     id="path9"
     inkscape:connector-curvature="0" /><path
     style="fill:#f9a12c"
     d="m 280,309.30959 c 0,0.8 -0.8,1.6 -1.6,1.6 l -60.8,0 c -0.8,0 -1.6,-0.8 -1.6,-1.6 l 0,-12.8 c 0,-0.8 0.8,-1.6 1.6,-1.6 l 60.8,0 c 0.8,0 1.6,0.8 1.6,1.6 l 0,12.8 z"
     id="path11"
     inkscape:connector-curvature="0" /><path
     style="fill:#e88813"
     d="m 224,294.90959 0,0 56,0 0,0 0,14.4 c 0,0.8 -0.8,1.6 -1.6,1.6"
     id="path13"
     inkscape:connector-curvature="0" /><path
     style="fill:#f9a12c"
     d="m 280,349.30959 c 0,0.8 -0.8,1.6 -1.6,1.6 l -60.8,0 c -0.8,0 -1.6,-0.8 -1.6,-1.6 l 0,-12.8 c 0,-0.8 0.8,-1.6 1.6,-1.6 l 60.8,0 c 0.8,0 1.6,0.8 1.6,1.6 l 0,12.8 z"
     id="path15"
     inkscape:connector-curvature="0" /><path
     style="fill:#e88813"
     d="m 224,334.90959 0,0 56,0 0,0 0,14.4 c 0,0.8 -0.8,1.6 -1.6,1.6"
     id="path17"
     inkscape:connector-curvature="0" /><g
     id="g19"
     transform="translate(0,-25.090411)"><path
       style="fill:#3a2819"
       d="m 184,408.8 c 0,7.2 -4.8,15.2 -12,15.2 L 42.4,424 C 35.2,424 32,416 32,408.8 L 32,280 c 0,-7.2 3.2,-16 10.4,-16 l 128.8,0 c 7.2,0 12,8 12,16 l 0,128.8 0.8,0 z"
       id="path21"
       inkscape:connector-curvature="0" /><path
       style="fill:#3a2819"
       d="m 464,410.4 c 0,7.2 -6.4,13.6 -13.6,13.6 l -132.8,0 c -7.2,0 -13.6,-6.4 -13.6,-13.6 l 0,-132.8 c 0,-7.2 6.4,-13.6 13.6,-13.6 l 132.8,0 c 7.2,0 13.6,6.4 13.6,13.6 l 0,132.8 0,0 z"
       id="path23"
       inkscape:connector-curvature="0" /></g><path
     style="fill:#ea1f0a"
     d="m 152,294.90959 -16,0 0,-20.8 c 0,-5.6 -5.6,-11.2 -10.4,-11.2 l -36,0 c -5.6,0 -9.6,5.6 -9.6,11.2 l 0,20.8 -17.6,0 c -5.6,0 -6.4,0.8 -6.4,6.4 l 0,36 c 0,5.6 0.8,13.6 6.4,13.6 l 17.6,0 0,13.6 c 0,5.6 4,10.4 9.6,10.4 l 36,0 c 5.6,0 10.4,-5.6 10.4,-10.4 l 0,-13.6 16,0 c 5.6,0 8,-8 8,-13.6 l 0,-36 c 0,-5.6 -2.4,-6.4 -8,-6.4 z"
     id="path25"
     inkscape:connector-curvature="0" /><path
     style="fill:#bc0400"
     d="m 80,350.90959 0,13.6 c 0,5.6 4,10.4 9.6,10.4 l 36,0 c 5.6,0 10.4,-5.6 10.4,-10.4 l 0,-13.6 16,0 c 5.6,0 8,-8 8,-13.6 l 0,-36 c 0,-5.6 -2.4,-6.4 -8,-6.4 l -16,0"
     id="path27"
     inkscape:connector-curvature="0" /><path
     style="fill:#329908"
     d="m 388.8,294.10959 c 0,16.8 -13.6,29.6 -29.6,29.6 -16.8,0 -29.6,-13.6 -29.6,-29.6 0,-16.8 13.6,-29.6 29.6,-29.6 16,0 29.6,13.6 29.6,29.6 z"
     id="path29"
     inkscape:connector-curvature="0" /><path
     style="fill:#236d00"
     d="m 380,273.30959 c 12,12 12,30.4 0,42.4 -12,12 -30.4,12 -42.4,0"
     id="path31"
     inkscape:connector-curvature="0" /><path
     style="fill:#07bed6"
     d="m 444.8,344.50959 c 0,16.8 -13.6,29.6 -29.6,29.6 -16.8,0 -29.6,-13.6 -29.6,-29.6 0,-16.8 13.6,-29.6 29.6,-29.6 16,-0.8 29.6,12.8 29.6,29.6 z"
     id="path33"
     inkscape:connector-curvature="0" /><path
     style="fill:#00a1ad"
     d="m 436,322.90959 c 12,12 12,30.4 0,42.4 -12,12 -30.4,12 -42.4,0"
     id="path35"
     inkscape:connector-curvature="0" /><path
     style="fill:#d8d6ca"
     d="m 474.4,222.90959 c 0,3.2 -2.4,8 -5.6,8 l -441.6,0 c -3.2,0 -5.6,-4.8 -5.6,-8 l 0,0 c 0,-3.2 2.4,-8 5.6,-8 l 441.6,0 c 3.2,0 5.6,4.8 5.6,8 l 0,0 z"
     id="path37"
     inkscape:connector-curvature="0" /><path
     style="fill:#28384c;fill-opacity:1"
     d="m 177.71638,117.76083 c -6.4,0 -12,5.6 -12,12 0,14.4 -10.4,25.6 -24.8,25.6 -14.4,0 -24,-11.2 -24,-25.6 l 0,-127.9999951 -23.999999,0 0,127.9999951 c 0,27.2 20.799999,49.6 48.799999,49.6 28,0 48.8,-22.4 48.8,-49.6 0,-6.4 -6.4,-12 -12.8,-12 z"
     id="path41"
     inkscape:connector-curvature="0" /><g
     id="g43"
     transform="translate(0,-25.090411)" /><g
     id="g45"
     transform="translate(0,-25.090411)" /><g
     id="g47"
     transform="translate(0,-25.090411)" /><g
     id="g49"
     transform="translate(0,-25.090411)" /><g
     id="g51"
     transform="translate(0,-25.090411)" /><g
     id="g53"
     transform="translate(0,-25.090411)" /><g
     id="g55"
     transform="translate(0,-25.090411)" /><g
     id="g57"
     transform="translate(0,-25.090411)" /><g
     id="g59"
     transform="translate(0,-25.090411)" /><g
     id="g61"
     transform="translate(0,-25.090411)" /><g
     id="g63"
     transform="translate(0,-25.090411)" /><g
     id="g65"
     transform="translate(0,-25.090411)" /><g
     id="g67"
     transform="translate(0,-25.090411)" /><g
     id="g69"
     transform="translate(0,-25.090411)" /><g
     id="g71"
     transform="translate(0,-25.090411)" /></svg>