<?xml version="1.0" encoding="UTF-8" standalone="no"?>
<!DOCTYPE svg PUBLIC "-//W3C//DTD SVG 1.1//EN" "http://www.w3.org/Graphics/SVG/1.1/DTD/svg11.dtd">
<svg version="1.1" xmlns="http://www.w3.org/2000/svg" xmlns:xlink="http://www.w3.org/1999/xlink" preserveAspectRatio="xMidYMid meet" viewBox="0 0 1024 800" width="1024" height="800"><defs><path d="M1019.93 718C1019.93 718 1019.93 718 1019.93 718C1019.93 719.8 1019.93 720.8 1019.93 721C1019.93 721 1019.93 721 1019.93 721C408.01 721 68.06 721 0.07 721C0.07 721 0.07 721 0.07 721C0.07 719.2 0.07 718.2 0.07 718C0.07 718 0.07 718 0.07 718C611.99 718 951.94 718 1019.93 718Z" id="b2SU1h8DW"></path><path d="M31.06 594.02L31.06 138.07L387.02 138.07L387.02 594.02L31.06 594.02ZM33.06 592.02L385.02 592.02L385.02 140.07L33.06 140.07L33.06 592.02Z" id="dmg92ZxsG"></path><path d="M363.02 166.07C363.02 166.07 363.02 166.07 363.02 166.07C363.02 283.06 363.02 348.05 363.02 361.05C363.02 361.05 363.02 361.05 363.02 361.05C178.24 361.05 75.59 361.05 55.06 361.05C55.06 361.05 55.06 361.05 55.06 361.05C55.06 244.06 55.06 179.07 55.06 166.07C55.06 166.07 55.06 166.07 55.06 166.07C239.83 166.07 342.49 166.07 363.02 166.07Z" id="a9z7SFIqM"></path><path d="M363.02 353.05C363.02 353.05 363.02 353.05 363.02 353.05C363.02 478.43 363.02 548.09 363.02 562.02C363.02 562.02 363.02 562.02 363.02 562.02C178.24 562.02 75.59 562.02 55.06 562.02C55.06 562.02 55.06 562.02 55.06 562.02C55.06 436.64 55.06 366.98 55.06 353.05C55.06 353.05 55.06 353.05 55.06 353.05C239.83 353.05 342.49 353.05 363.02 353.05Z" id="e2bNNfuFdx"></path><path d="M217.04 165.07C217.04 165.07 217.04 165.07 217.04 165.07C217.04 282.66 217.04 347.98 217.04 361.05C217.04 361.05 217.04 361.05 217.04 361.05C207.44 361.05 202.11 361.05 201.04 361.05C201.04 361.05 201.04 361.05 201.04 361.05C201.04 243.46 201.04 178.14 201.04 165.07C201.04 165.07 201.04 165.07 201.04 165.07C210.64 165.07 215.97 165.07 217.04 165.07Z" id="eg1PrKkNX"></path><path d="M363.02 165.07C363.02 165.07 363.02 165.07 363.02 165.07C363.02 282.66 363.02 347.98 363.02 361.05C363.02 361.05 363.02 361.05 363.02 361.05C353.42 361.05 348.09 361.05 347.02 361.05C347.02 361.05 347.02 361.05 347.02 361.05C347.02 243.46 347.02 178.14 347.02 165.07C347.02 165.07 347.02 165.07 347.02 165.07C356.62 165.07 361.95 165.07 363.02 165.07Z" id="b2HBmMMPHe"></path><path d="M363.02 361.05C363.02 361.05 363.02 361.05 363.02 361.05C178.24 361.05 75.59 361.05 55.06 361.05C55.06 361.05 55.06 361.05 55.06 361.05C55.06 351.45 55.06 346.11 55.06 345.05C55.06 345.05 55.06 345.05 55.06 345.05C239.83 345.05 342.49 345.05 363.02 345.05C363.02 345.05 363.02 345.05 363.02 345.05C363.02 354.65 363.02 359.98 363.02 361.05Z" id="a1iG08slP"></path><path d="M71.06 289.56L71.06 304.86L112.75 271.06L98.58 271.06L98.58 271.06L71.06 289.56Z" id="avoXtOpQk"></path><path d="M71.06 328.11L71.06 341.14L166.04 271.06L143.93 271.06L143.93 271.06L71.06 328.11Z" id="cGtNhYvX7"></path><path d="M71.06 165.07C71.06 165.07 71.06 165.07 71.06 165.07C71.06 282.66 71.06 347.98 71.06 361.05C71.06 361.05 71.06 361.05 71.06 361.05C61.46 361.05 56.12 361.05 55.06 361.05C55.06 361.05 55.06 361.05 55.06 361.05C55.06 243.46 55.06 178.14 55.06 165.07C55.06 165.07 55.06 165.07 55.06 165.07C64.66 165.07 69.99 165.07 71.06 165.07Z" id="b1wyseSzZO"></path><path d="M257.03 259.06L276.03 261.06L329.02 178.07L318.52 181.07L318.52 181.07L257.03 259.06Z" id="d7Z5YOO7ig"></path><path d="M363.02 181.07C363.02 181.07 363.02 181.07 363.02 181.07C178.24 181.07 75.59 181.07 55.06 181.07C55.06 181.07 55.06 181.07 55.06 181.07C55.06 171.47 55.06 166.14 55.06 165.07C55.06 165.07 55.06 165.07 55.06 165.07C239.83 165.07 342.49 165.07 363.02 165.07C363.02 165.07 363.02 165.07 363.02 165.07C363.02 174.67 363.02 180 363.02 181.07Z" id="ayIxlcZz0"></path><path d="M363.02 271.06C363.02 271.06 363.02 271.06 363.02 271.06C178.24 271.06 75.59 271.06 55.06 271.06C55.06 271.06 55.06 271.06 55.06 271.06C55.06 261.46 55.06 256.13 55.06 255.06C55.06 255.06 55.06 255.06 55.06 255.06C239.83 255.06 342.49 255.06 363.02 255.06C363.02 255.06 363.02 255.06 363.02 255.06C363.02 264.66 363.02 269.99 363.02 271.06Z" id="a2hVMLdDE9"></path><path d="M211.51 562.02C209.55 562.02 193.87 562.02 191.91 562.02C185.83 558.07 182.71 550.85 184 543.71C185.77 533.93 194.07 533.34 203.85 535.11C213.63 536.88 221.19 540.34 219.42 550.13C218.54 555.02 215.68 559.33 211.51 562.02Z" id="b4AsnVNiFe"></path><path d="M234.54 681.51L239.53 696.5C242.53 707.9 244.2 714.23 244.53 715.5C244.53 715.5 257.53 722.5 258.53 717.5C258.53 717.5 253.53 711.5 253.53 711.5C253.4 710.83 252.73 707.5 251.53 701.5L266.53 674.51L234.54 681.51Z" id="dpIkTCV7d"></path><path d="M328.52 716.5C328.52 716.5 335.52 720.5 340.52 718.5C340.52 718.5 337.52 711.5 337.52 711.5C337.52 711.5 340.52 686.5 355.52 683.5C370.52 680.51 319.52 675.51 319.52 675.51C321.32 683.7 327.62 712.4 328.52 716.5Z" id="cIsnFL1iX"></path><path d="M340.52 630.51C340.52 630.51 305.53 625.51 302.53 624.51C299.53 623.51 265.53 621.51 247.53 624.51C247.53 624.51 197.54 585.52 225.54 568.52C225.54 568.52 237.53 574.52 240.53 570.52C241.66 569.02 241.1 567.1 239.95 565.28C237.33 561.28 232.91 558.82 228.12 558.71C217.67 558.32 198.95 562.07 207.45 596.24C209.87 605.66 214.34 614.43 220.52 621.94C225.08 627.55 229.79 635.32 227.54 641.51C223.54 652.51 222.54 669.51 222.54 669.51C221.14 671.61 209.94 688.4 208.54 690.5C208.54 690.5 200.54 716.5 200.54 717.5C200.54 717.5 211.42 720.62 213.54 718.5C215.54 716.5 210.54 712.5 210.54 712.5C210.54 712.5 214.54 704.5 221.54 702.5C228.54 700.5 247.53 693.5 250.53 690.5C253.53 687.5 317.52 669.51 335.52 686.5C345.62 696.15 356.31 705.17 367.52 713.5C367.52 713.5 372.52 720.5 378.52 720.5C378.52 720.5 385.52 711.5 378.52 710.5C378.52 710.5 361.52 685.5 361.52 685.5C361.52 685.5 358.52 667.51 373.52 664.51C381.79 662.85 386.71 662.72 389.47 662.93C391.69 663.12 393.89 662.39 395.57 660.92C397.36 659.2 398.95 657.3 400.34 655.25C401.08 654.2 401.27 652.85 400.83 651.63C399.5 647.99 398.39 644.28 397.51 640.51C396.51 635.51 388.52 631.51 388.52 631.51C388.52 631.51 386.52 617.51 383.52 621.51C381.98 623.62 380.31 625.62 378.52 627.51C370.92 628.11 358.52 634.51 340.52 630.51Z" id="a4lY2TTQYw"></path><path d="M577.99 499.03L577.99 43.09L933.95 43.09L933.95 499.03L577.99 499.03ZM579.99 497.03L931.95 497.03L931.95 45.09L579.99 45.09L579.99 497.03Z" id="a1bxYciYJm"></path><path d="M909.95 71.08C909.95 71.08 909.95 71.08 909.95 71.08C909.95 188.07 909.95 253.06 909.95 266.06C909.95 266.06 909.95 266.06 909.95 266.06C725.17 266.06 622.52 266.06 601.99 266.06C601.99 266.06 601.99 266.06 601.99 266.06C601.99 149.07 601.99 84.08 601.99 71.08C601.99 71.08 601.99 71.08 601.99 71.08C786.76 71.08 889.42 71.08 909.95 71.08Z" id="f3GMHg4QD"></path><path d="M909.95 258.06C909.95 258.06 909.95 258.06 909.95 258.06C909.95 383.44 909.95 453.1 909.95 467.03C909.95 467.03 909.95 467.03 909.95 467.03C725.17 467.03 622.52 467.03 601.99 467.03C601.99 467.03 601.99 467.03 601.99 467.03C601.99 341.65 601.99 271.99 601.99 258.06C601.99 258.06 601.99 258.06 601.99 258.06C786.76 258.06 889.42 258.06 909.95 258.06Z" id="d6s2MImGJk"></path><path d="M763.97 70.08C763.97 70.08 763.97 70.08 763.97 70.08C763.97 187.67 763.97 252.99 763.97 266.06C763.97 266.06 763.97 266.06 763.97 266.06C754.37 266.06 749.04 266.06 747.97 266.06C747.97 266.06 747.97 266.06 747.97 266.06C747.97 148.47 747.97 83.15 747.97 70.08C747.97 70.08 747.97 70.08 747.97 70.08C757.57 70.08 762.9 70.08 763.97 70.08Z" id="i8CSv4onp"></path><path d="M909.95 70.08C909.95 70.08 909.95 70.08 909.95 70.08C909.95 187.67 909.95 252.99 909.95 266.06C909.95 266.06 909.95 266.06 909.95 266.06C900.35 266.06 895.02 266.06 893.95 266.06C893.95 266.06 893.95 266.06 893.95 266.06C893.95 148.47 893.95 83.15 893.95 70.08C893.95 70.08 893.95 70.08 893.95 70.08C903.55 70.08 908.88 70.08 909.95 70.08Z" id="a1ec0a2X3l"></path><path d="M909.95 266.06C909.95 266.06 909.95 266.06 909.95 266.06C725.17 266.06 622.52 266.06 601.99 266.06C601.99 266.06 601.99 266.06 601.99 266.06C601.99 256.46 601.99 251.13 601.99 250.06C601.99 250.06 601.99 250.06 601.99 250.06C786.76 250.06 889.42 250.06 909.95 250.06C909.95 250.06 909.95 250.06 909.95 250.06C909.95 259.66 909.95 264.99 909.95 266.06Z" id="cpucKX1IH"></path><path d="M617.99 194.57L617.99 209.88L659.68 176.07L645.51 176.07L645.51 176.07L617.99 194.57Z" id="c6uEWeYhs4"></path><path d="M617.99 233.12L617.99 246.16L712.97 176.07L690.86 176.07L690.86 176.07L617.99 233.12Z" id="f4Fs3obi7K"></path><path d="M617.99 70.08C617.99 70.08 617.99 70.08 617.99 70.08C617.99 187.67 617.99 252.99 617.99 266.06C617.99 266.06 617.99 266.06 617.99 266.06C608.39 266.06 603.05 266.06 601.99 266.06C601.99 266.06 601.99 266.06 601.99 266.06C601.99 148.47 601.99 83.15 601.99 70.08C601.99 70.08 601.99 70.08 601.99 70.08C611.59 70.08 616.92 70.08 617.99 70.08Z" id="a1qZwnY7XE"></path><path d="M803.96 164.07L822.96 166.07L875.95 83.08L865.45 86.08L865.45 86.08L803.96 164.07Z" id="aVQzIWXP"></path><path d="M909.95 86.08C909.95 86.08 909.95 86.08 909.95 86.08C725.17 86.08 622.52 86.08 601.99 86.08C601.99 86.08 601.99 86.08 601.99 86.08C601.99 76.48 601.99 71.15 601.99 70.08C601.99 70.08 601.99 70.08 601.99 70.08C786.76 70.08 889.42 70.08 909.95 70.08C909.95 70.08 909.95 70.08 909.95 70.08C909.95 79.68 909.95 85.01 909.95 86.08Z" id="c313RdbSTU"></path><path d="M909.95 176.07C909.95 176.07 909.95 176.07 909.95 176.07C725.17 176.07 622.52 176.07 601.99 176.07C601.99 176.07 601.99 176.07 601.99 176.07C601.99 166.47 601.99 161.14 601.99 160.07C601.99 160.07 601.99 160.07 601.99 160.07C786.76 160.07 889.42 160.07 909.95 160.07C909.95 160.07 909.95 160.07 909.95 160.07C909.95 169.67 909.95 175 909.95 176.07Z" id="b1EZWQ3lA"></path><path d="M771.41 211.73C775.98 215.81 774.22 225.26 767.46 232.85C760.7 240.43 751.52 243.28 746.95 239.2C742.37 235.13 744.14 225.68 750.9 218.09C757.65 210.51 766.84 207.66 771.41 211.73Z" id="ddcuSOo4K"></path><path d="M794.07 211.41C767.48 211.41 745.93 232.96 745.93 259.55C745.93 286.14 767.48 307.69 794.07 307.69C820.66 307.69 842.21 286.14 842.21 259.55C842.21 232.96 820.66 211.41 794.07 211.41Z" id="b1ikMpUdy9"></path><path d="M608.63 241.99C604.99 242.29 602.11 245.2 601.84 248.84C601.68 251.14 600.34 269.59 600.17 271.9C599.88 275.97 602.94 279.52 607.02 279.82C607.2 279.83 607.38 279.84 607.56 279.84C608.9 279.84 615.63 279.84 627.73 279.84L627.73 280.92L635.84 280.92L635.84 279.84L640.17 279.84L640.17 280.92L648.28 280.92L648.28 279.84C650.88 279.84 652.32 279.84 652.61 279.84C656.55 279.84 659.8 276.75 660 272.81C660.14 270.14 661.24 248.76 661.37 246.09C661.58 242.01 658.44 238.53 654.36 238.32C654.03 238.3 653.7 238.3 653.38 238.33C644.43 239.06 613.1 241.63 608.63 241.99Z" id="akG2zTlIG"></path><path d="M618.53 281.46C611.72 292.17 607.93 298.12 607.17 299.31C607.17 299.31 640.08 320.32 641.79 322.03C644.23 324.46 670.46 341.5 680.74 338.8C691.02 336.09 686.15 313.92 681.82 311.21C673.38 307.24 652.29 297.33 618.53 281.46Z" id="d9mxpBXj"></path><path d="M716.98 465.92L800.98 465.92L794.88 446.45L725.1 447.53L725.1 447.53L716.98 465.92Z" id="aoMnj9tf8"></path><path d="M776.49 318.24C773.24 320.41 798.13 346.91 798.13 346.91C798.81 346.3 802.24 343.23 808.41 337.72C810.35 325.06 811.43 318.03 811.65 316.62C811.65 316.62 801.91 303.1 806.24 291.2C810.57 279.29 776.49 298.23 776.49 298.23C776.49 302.23 779.73 316.08 776.49 318.24Z" id="c1kchNKho2"></path><path d="M786.23 234.4C767.11 234.4 751.61 249.9 751.61 269.02C751.61 288.14 767.11 303.64 786.23 303.64C805.35 303.64 820.85 288.14 820.85 269.02C820.85 249.9 805.35 234.4 786.23 234.4Z" id="a80jCGUg5"></path><path d="M795.42 334.47C795.42 334.47 781.9 313.92 774.33 312.29C774.33 312.29 759.72 311.75 755.39 312.29C755.39 312.29 736.46 307.42 727.8 311.21C727.8 311.21 727.8 359.36 727.8 359.36C727.8 359.36 718.07 416.16 722.39 430.76C722.39 430.76 723.48 448.07 721.31 449.69C721.31 449.69 770.54 465.92 770.54 465.92C775.41 465.92 814.36 465.92 819.22 465.92C819.22 465.92 819.22 450.24 824.09 446.45C824.09 446.45 828.42 362.6 828.42 362.6C830.04 359.46 843.03 334.36 844.65 331.23C844.65 331.23 841.94 319.32 830.58 318.78C830.58 318.78 809.08 312.28 809.08 312.28C808.57 313.76 806 321.16 801.37 334.47C798.2 334.47 796.22 334.47 795.42 334.47Z" id="b3IpmluFZD"></path><path d="M732.67 313.92C729.75 312.29 728.13 311.39 727.8 311.21C727.8 311.21 718.61 311.75 716.98 311.21C716.98 311.21 694.81 304.18 686.69 307.96C686.69 307.96 673.17 306.88 673.17 306.88C673.17 306.88 699.67 329.6 667.22 336.64C667.22 336.64 667.76 339.34 675.87 340.96C683.99 342.59 685.61 344.21 688.85 346.91C692.1 349.62 698.59 352.32 702.92 353.4C707.25 354.49 721.31 363.68 723.48 361.52C725.64 359.36 729.43 351.78 729.43 351.78C729.86 346.73 730.94 334.11 732.67 313.92Z" id="c2wPnEJ8Oq"></path><path d="M844.65 331.23C844.65 331.23 858.17 371.26 856.01 380.99C856.01 380.99 851.68 389.11 854.93 395.6C854.93 395.6 861.42 402.63 859.25 408.58C859.25 408.58 858.17 429.14 854.93 435.09C854.93 435.09 835.99 459.97 822.47 428.06C808.95 396.14 834.37 325.28 834.37 325.28C836.43 326.47 843.62 330.63 844.65 331.23Z" id="ekRP0aflc"></path><path d="M844.65 391.81C844.65 391.81 835.45 353.4 835.45 353.4C835.45 353.4 847.35 333.93 836.53 325.28C836.53 325.28 856.55 297.15 850.06 297.69C843.57 298.23 830.58 318.78 830.58 318.78C830.58 318.78 827.61 317.97 828.69 313.64C829.77 309.32 833.83 293.9 830.58 293.36C827.34 292.82 820.85 316.08 820.85 316.08C820.85 316.08 807.59 340.15 811.65 348.54C814.01 353.24 816.72 357.76 819.77 362.06C820.68 368.77 828.04 422.43 828.96 429.14C828.96 429.14 846.81 450.78 853.85 408.04C852.01 404.8 846.27 392.89 844.65 391.81Z" id="eh3j1sx5e"></path><path d="M655.86 245.76C655.86 247.25 653.19 248.46 649.91 248.46C646.62 248.46 643.96 247.25 643.96 245.76C643.96 244.26 646.62 243.05 649.91 243.05C653.19 243.05 655.86 244.26 655.86 245.76Z" id="asgsHbdpt"></path><path d="M613.66 299.31C609.12 299.31 606.59 299.31 606.09 299.31C606.09 299.31 589.32 293.9 589.32 281.46C589.32 281.46 594.19 243.59 609.34 244.13C609.34 244.13 610.42 278.21 610.42 278.21C611.03 278.46 614.08 279.71 619.59 281.95L619.61 293.36L613.66 299.31Z" id="a3juXgd5d4"></path><path d="M811.38 246.03C811.38 254.69 797.58 261.71 780.55 261.71C763.52 261.71 749.71 254.69 749.71 246.03C749.71 237.36 763.52 230.34 780.55 230.34C797.58 230.34 811.38 237.36 811.38 246.03Z" id="b2JEbysIVl"></path><path d="M824.9 265.5C824.9 268.79 823.69 271.45 822.2 271.45C820.71 271.45 819.49 268.79 819.49 265.5C819.49 262.21 820.71 259.55 822.2 259.55C823.69 259.55 824.9 262.21 824.9 265.5Z" id="bTo0C6Hcw"></path><path d="M848.13 229.28C852.57 238.42 851.7 247.99 846.19 250.67C840.68 253.35 832.62 248.11 828.18 238.97C823.74 229.83 824.61 220.26 830.12 217.58C835.63 214.91 843.7 220.14 848.13 229.28Z" id="b4SJ877AGi"></path><path d="M741.22 549.93C741.22 549.93 741.22 549.93 741.22 549.93C741.22 551.13 741.22 551.8 741.22 551.93C741.22 551.93 741.22 551.93 741.22 551.93C657.23 551.93 610.57 551.93 601.24 551.93C601.24 551.93 601.24 551.93 601.24 551.93C601.24 550.73 601.24 550.06 601.24 549.93C601.24 549.93 601.24 549.93 601.24 549.93C685.23 549.93 731.89 549.93 741.22 549.93Z" id="b1egqFi3wx"></path><path d="M703.22 551.43C703.22 551.43 703.22 551.43 703.22 551.43C703.22 562.53 703.22 568.69 703.22 569.93C703.22 569.93 703.22 569.93 703.22 569.93C702.02 569.93 701.36 569.93 701.22 569.93C701.22 569.93 701.22 569.93 701.22 569.93C701.22 558.83 701.22 552.66 701.22 551.43C701.22 551.43 701.22 551.43 701.22 551.43C702.42 551.43 703.09 551.43 703.22 551.43Z" id="a1tJ6D7dIv"></path><path d="M642.23 551.43C642.23 551.43 642.23 551.43 642.23 551.43C642.23 562.53 642.23 568.69 642.23 569.93C642.23 569.93 642.23 569.93 642.23 569.93C641.03 569.93 640.37 569.93 640.23 569.93C640.23 569.93 640.23 569.93 640.23 569.93C640.23 558.83 640.23 552.66 640.23 551.43C640.23 551.43 640.23 551.43 640.23 551.43C641.43 551.43 642.1 551.43 642.23 551.43Z" id="a2eufZodFP"></path><path d="M627.23 0C627.23 0 627.23 0 627.23 0C627.23 1.2 627.23 1.87 627.23 2C627.23 2 627.23 2 627.23 2C543.24 2 496.58 2 487.25 2C487.25 2 487.25 2 487.25 2C487.25 0.8 487.25 0.13 487.25 0C487.25 0 487.25 0 487.25 0C571.24 0 617.9 0 627.23 0Z" id="d4eA2o5SGY"></path><path d="M589.24 1.5C589.24 1.5 589.24 1.5 589.24 1.5C589.24 12.6 589.24 18.76 589.24 20C589.24 20 589.24 20 589.24 20C588.04 20 587.37 20 587.24 20C587.24 20 587.24 20 587.24 20C587.24 8.9 587.24 2.73 587.24 1.5C587.24 1.5 587.24 1.5 587.24 1.5C588.44 1.5 589.11 1.5 589.24 1.5Z" id="a1brU6hgXb"></path><path d="M528.25 1.5C528.25 1.5 528.25 1.5 528.25 1.5C528.25 12.6 528.25 18.76 528.25 20C528.25 20 528.25 20 528.25 20C527.05 20 526.38 20 526.25 20C526.25 20 526.25 20 526.25 20C526.25 8.9 526.25 2.73 526.25 1.5C526.25 1.5 526.25 1.5 526.25 1.5C527.45 1.5 528.11 1.5 528.25 1.5Z" id="b1FBXom02"></path><path d="M568.24 250.97C568.24 250.97 568.24 250.97 568.24 250.97C568.24 252.17 568.24 252.83 568.24 252.97C568.24 252.97 568.24 252.97 568.24 252.97C484.25 252.97 437.59 252.97 428.26 252.97C428.26 252.97 428.26 252.97 428.26 252.97C428.26 251.77 428.26 251.1 428.26 250.97C428.26 250.97 428.26 250.97 428.26 250.97C512.25 250.97 558.91 250.97 568.24 250.97Z" id="f6ukXUJgFO"></path><path d="M530.25 252.47C530.25 252.47 530.25 252.47 530.25 252.47C530.25 263.57 530.25 269.73 530.25 270.97C530.25 270.97 530.25 270.97 530.25 270.97C529.05 270.97 528.38 270.97 528.25 270.97C528.25 270.97 528.25 270.97 528.25 270.97C528.25 259.87 528.25 253.7 528.25 252.47C528.25 252.47 528.25 252.47 528.25 252.47C529.45 252.47 530.11 252.47 530.25 252.47Z" id="c2nLkigwnZ"></path><path d="M469.25 252.47C469.25 252.47 469.25 252.47 469.25 252.47C469.25 263.57 469.25 269.73 469.25 270.97C469.25 270.97 469.25 270.97 469.25 270.97C468.05 270.97 467.39 270.97 467.25 270.97C467.25 270.97 467.25 270.97 467.25 270.97C467.25 259.87 467.25 253.7 467.25 252.47C467.25 252.47 467.25 252.47 467.25 252.47C468.45 252.47 469.12 252.47 469.25 252.47Z" id="aGPzIHYI"></path><path d="M263.28 35C263.28 35 263.28 35 263.28 35C263.28 36.2 263.28 36.86 263.28 37C263.28 37 263.28 37 263.28 37C179.29 37 132.63 37 123.3 37C123.3 37 123.3 37 123.3 37C123.3 35.8 123.3 35.13 123.3 35C123.3 35 123.3 35 123.3 35C207.29 35 253.95 35 263.28 35Z" id="c1BsfaxIY"></path><path d="M225.28 36.5C225.28 36.5 225.28 36.5 225.28 36.5C225.28 47.59 225.28 53.76 225.28 54.99C225.28 54.99 225.28 54.99 225.28 54.99C224.09 54.99 223.42 54.99 223.29 54.99C223.29 54.99 223.29 54.99 223.29 54.99C223.29 43.89 223.29 37.73 223.29 36.5C223.29 36.5 223.29 36.5 223.29 36.5C224.49 36.5 225.15 36.5 225.28 36.5Z" id="cItePBIU"></path><path d="M164.29 36.5C164.29 36.5 164.29 36.5 164.29 36.5C164.29 47.59 164.29 53.76 164.29 54.99C164.29 54.99 164.29 54.99 164.29 54.99C163.09 54.99 162.43 54.99 162.29 54.99C162.29 54.99 162.29 54.99 162.29 54.99C162.29 43.89 162.29 37.73 162.29 36.5C162.29 36.5 162.29 36.5 162.29 36.5C163.49 36.5 164.16 36.5 164.29 36.5Z" id="b1kE0aIPAH"></path><path d="M798.21 623.92C798.21 623.92 798.21 623.92 798.21 623.92C798.21 625.12 798.21 625.79 798.21 625.92C798.21 625.92 798.21 625.92 798.21 625.92C714.22 625.92 667.56 625.92 658.23 625.92C658.23 625.92 658.23 625.92 658.23 625.92C658.23 624.72 658.23 624.05 658.23 623.92C658.23 623.92 658.23 623.92 658.23 623.92C742.22 623.92 788.88 623.92 798.21 623.92Z" id="b3DbcwMcH3"></path><path d="M698.22 605.92C698.22 605.92 698.22 605.92 698.22 605.92C698.22 617.02 698.22 623.19 698.22 624.42C698.22 624.42 698.22 624.42 698.22 624.42C697.02 624.42 696.36 624.42 696.22 624.42C696.22 624.42 696.22 624.42 696.22 624.42C696.22 613.32 696.22 607.16 696.22 605.92C696.22 605.92 696.22 605.92 696.22 605.92C697.42 605.92 698.09 605.92 698.22 605.92Z" id="f49YnnyygE"></path><path d="M759.22 605.92C759.22 605.92 759.22 605.92 759.22 605.92C759.22 617.02 759.22 623.19 759.22 624.42C759.22 624.42 759.22 624.42 759.22 624.42C758.02 624.42 757.35 624.42 757.22 624.42C757.22 624.42 757.22 624.42 757.22 624.42C757.22 613.32 757.22 607.16 757.22 605.92C757.22 605.92 757.22 605.92 757.22 605.92C758.42 605.92 759.08 605.92 759.22 605.92Z" id="c3MxZjBPkx"></path><path d="M580.24 662.92C580.24 662.92 580.24 662.92 580.24 662.92C580.24 664.12 580.24 664.78 580.24 664.91C580.24 664.91 580.24 664.91 580.24 664.91C496.25 664.91 449.59 664.91 440.26 664.91C440.26 664.91 440.26 664.91 440.26 664.91C440.26 663.72 440.26 663.05 440.26 662.92C440.26 662.92 440.26 662.92 440.26 662.92C524.25 662.92 570.91 662.92 580.24 662.92Z" id="k4sxPhj4Jk"></path><path d="M480.25 644.92C480.25 644.92 480.25 644.92 480.25 644.92C480.25 656.02 480.25 662.18 480.25 663.42C480.25 663.42 480.25 663.42 480.25 663.42C479.05 663.42 478.39 663.42 478.25 663.42C478.25 663.42 478.25 663.42 478.25 663.42C478.25 652.32 478.25 646.15 478.25 644.92C478.25 644.92 478.25 644.92 478.25 644.92C479.45 644.92 480.12 644.92 480.25 644.92Z" id="a1JwzNum08"></path><path d="M541.24 644.92C541.24 644.92 541.24 644.92 541.24 644.92C541.24 656.02 541.24 662.18 541.24 663.42C541.24 663.42 541.24 663.42 541.24 663.42C540.04 663.42 539.38 663.42 539.24 663.42C539.24 663.42 539.24 663.42 539.24 663.42C539.24 652.32 539.24 646.15 539.24 644.92C539.24 644.92 539.24 644.92 539.24 644.92C540.44 644.92 541.11 644.92 541.24 644.92Z" id="f2CiDLyuxA"></path><path d="M598.24 523.93C598.24 523.93 598.24 523.93 598.24 523.93C598.24 525.13 598.24 525.8 598.24 525.93C598.24 525.93 598.24 525.93 598.24 525.93C514.25 525.93 467.59 525.93 458.26 525.93C458.26 525.93 458.26 525.93 458.26 525.93C458.26 524.73 458.26 524.07 458.26 523.93C458.26 523.93 458.26 523.93 458.26 523.93C542.24 523.93 588.91 523.93 598.24 523.93Z" id="dbepurePq"></path><path d="M498.25 505.94C498.25 505.94 498.25 505.94 498.25 505.94C498.25 517.03 498.25 523.2 498.25 524.43C498.25 524.43 498.25 524.43 498.25 524.43C497.05 524.43 496.38 524.43 496.25 524.43C496.25 524.43 496.25 524.43 496.25 524.43C496.25 513.33 496.25 507.17 496.25 505.94C496.25 505.94 496.25 505.94 496.25 505.94C497.45 505.94 498.12 505.94 498.25 505.94Z" id="e1mlkhy6ly"></path><path d="M559.24 505.94C559.24 505.94 559.24 505.94 559.24 505.94C559.24 517.03 559.24 523.2 559.24 524.43C559.24 524.43 559.24 524.43 559.24 524.43C558.04 524.43 557.38 524.43 557.24 524.43C557.24 524.43 557.24 524.43 557.24 524.43C557.24 513.33 557.24 507.17 557.24 505.94C557.24 505.94 557.24 505.94 557.24 505.94C558.44 505.94 559.11 505.94 559.24 505.94Z" id="ey6hJPL4p"></path><path d="M537.25 323.96C537.25 323.96 537.25 323.96 537.25 323.96C537.25 325.16 537.25 325.82 537.25 325.96C537.25 325.96 537.25 325.96 537.25 325.96C453.26 325.96 406.6 325.96 397.26 325.96C397.26 325.96 397.26 325.96 397.26 325.96C397.26 324.76 397.26 324.09 397.26 323.96C397.26 323.96 397.26 323.96 397.26 323.96C481.25 323.96 527.91 323.96 537.25 323.96Z" id="a1IB2AxXQA"></path><path d="M437.26 305.96C437.26 305.96 437.26 305.96 437.26 305.96C437.26 317.06 437.26 323.23 437.26 324.46C437.26 324.46 437.26 324.46 437.26 324.46C436.06 324.46 435.39 324.46 435.26 324.46C435.26 324.46 435.26 324.46 435.26 324.46C435.26 313.36 435.26 307.19 435.26 305.96C435.26 305.96 435.26 305.96 435.26 305.96C436.46 305.96 437.12 305.96 437.26 305.96Z" id="dalk8tyuQ"></path><path d="M498.25 305.96C498.25 305.96 498.25 305.96 498.25 305.96C498.25 317.06 498.25 323.23 498.25 324.46C498.25 324.46 498.25 324.46 498.25 324.46C497.05 324.46 496.38 324.46 496.25 324.46C496.25 324.46 496.25 324.46 496.25 324.46C496.25 313.36 496.25 307.19 496.25 305.96C496.25 305.96 496.25 305.96 496.25 305.96C497.45 305.96 498.12 305.96 498.25 305.96Z" id="blTCHWVsc"></path><path d="M439.26 103.99C439.26 103.99 439.26 103.99 439.26 103.99C439.26 105.19 439.26 105.85 439.26 105.99C439.26 105.99 439.26 105.99 439.26 105.99C355.27 105.99 308.61 105.99 299.28 105.99C299.28 105.99 299.28 105.99 299.28 105.99C299.28 104.79 299.28 104.12 299.28 103.99C299.28 103.99 299.28 103.99 299.28 103.99C383.26 103.99 429.93 103.99 439.26 103.99Z" id="cgw5lKsgd"></path><path d="M339.27 85.99C339.27 85.99 339.27 85.99 339.27 85.99C339.27 97.09 339.27 103.25 339.27 104.49C339.27 104.49 339.27 104.49 339.27 104.49C338.07 104.49 337.4 104.49 337.27 104.49C337.27 104.49 337.27 104.49 337.27 104.49C337.27 93.39 337.27 87.22 337.27 85.99C337.27 85.99 337.27 85.99 337.27 85.99C338.47 85.99 339.14 85.99 339.27 85.99Z" id="b3BEB9hOgw"></path><path d="M400.26 85.99C400.26 85.99 400.26 85.99 400.26 85.99C400.26 97.09 400.26 103.25 400.26 104.49C400.26 104.49 400.26 104.49 400.26 104.49C399.06 104.49 398.4 104.49 398.26 104.49C398.26 104.49 398.26 104.49 398.26 104.49C398.26 93.39 398.26 87.22 398.26 85.99C398.26 85.99 398.26 85.99 398.26 85.99C399.46 85.99 400.13 85.99 400.26 85.99Z" id="fXLx2hFd"></path><path d="M173.29 652.92C173.29 652.92 173.29 652.92 173.29 652.92C173.29 654.12 173.29 654.78 173.29 654.92C173.29 654.92 173.29 654.92 173.29 654.92C89.3 654.92 42.64 654.92 33.31 654.92C33.31 654.92 33.31 654.92 33.31 654.92C33.31 653.72 33.31 653.05 33.31 652.92C33.31 652.92 33.31 652.92 33.31 652.92C117.3 652.92 163.96 652.92 173.29 652.92Z" id="h4h3L2y890"></path><path d="M73.3 634.92C73.3 634.92 73.3 634.92 73.3 634.92C73.3 646.02 73.3 652.18 73.3 653.42C73.3 653.42 73.3 653.42 73.3 653.42C72.1 653.42 71.44 653.42 71.3 653.42C71.3 653.42 71.3 653.42 71.3 653.42C71.3 642.32 71.3 636.15 71.3 634.92C71.3 634.92 71.3 634.92 71.3 634.92C72.5 634.92 73.17 634.92 73.3 634.92Z" id="f2PE9VG78h"></path><path d="M134.3 634.92C134.3 634.92 134.3 634.92 134.3 634.92C134.3 646.02 134.3 652.18 134.3 653.42C134.3 653.42 134.3 653.42 134.3 653.42C133.1 653.42 132.43 653.42 132.3 653.42C132.3 653.42 132.3 653.42 132.3 653.42C132.3 642.32 132.3 636.15 132.3 634.92C132.3 634.92 132.3 634.92 132.3 634.92C133.5 634.92 134.16 634.92 134.3 634.92Z" id="a4Ar0lqrsj"></path><path d="M1004.19 579.93C1004.19 579.93 1004.19 579.93 1004.19 579.93C1004.19 581.13 1004.19 581.79 1004.19 581.93C1004.19 581.93 1004.19 581.93 1004.19 581.93C920.2 581.93 873.54 581.93 864.2 581.93C864.2 581.93 864.2 581.93 864.2 581.93C864.2 580.73 864.2 580.06 864.2 579.93C864.2 579.93 864.2 579.93 864.2 579.93C948.19 579.93 994.85 579.93 1004.19 579.93Z" id="a1DirCZAEb"></path><path d="M904.2 561.93C904.2 561.93 904.2 561.93 904.2 561.93C904.2 573.03 904.2 579.19 904.2 580.43C904.2 580.43 904.2 580.43 904.2 580.43C903 580.43 902.33 580.43 902.2 580.43C902.2 580.43 902.2 580.43 902.2 580.43C902.2 569.33 902.2 563.16 902.2 561.93C902.2 561.93 902.2 561.93 902.2 561.93C903.4 561.93 904.06 561.93 904.2 561.93Z" id="aguDebcIc"></path><path d="M965.19 561.93C965.19 561.93 965.19 561.93 965.19 561.93C965.19 573.03 965.19 579.19 965.19 580.43C965.19 580.43 965.19 580.43 965.19 580.43C963.99 580.43 963.32 580.43 963.19 580.43C963.19 580.43 963.19 580.43 963.19 580.43C963.19 569.33 963.19 563.16 963.19 561.93C963.19 561.93 963.19 561.93 963.19 561.93C964.39 561.93 965.06 561.93 965.19 561.93Z" id="e4iSkz2Ck"></path><path d="M487 406.49C482.03 406.49 478 410.52 478 415.49C478 420.46 482.03 424.49 487 424.49C491.97 424.49 496 420.46 496 415.49C496 410.52 491.97 406.49 487 406.49Z" id="ceyu7UWaK"></path><path d="M811.96 534.48C806.99 534.48 802.96 538.51 802.96 543.48C802.96 548.45 806.99 552.48 811.96 552.48C816.93 552.48 820.96 548.45 820.96 543.48C820.96 538.51 816.93 534.48 811.96 534.48Z" id="a8fOZE0JGy"></path><path d="M496 173.52C486.61 173.52 479 181.13 479 190.52C479 199.91 486.61 207.52 496 207.52C505.39 207.52 513 199.91 513 190.52C513 181.13 505.39 173.52 496 173.52Z" id="d11k16A9kU"></path></defs><g><g><g><use xlink:href="#b2SU1h8DW" opacity="1" fill="#2f2e41" fill-opacity="1"></use><g><use xlink:href="#b2SU1h8DW" opacity="1" fill-opacity="0" stroke="#000000" stroke-width="1" stroke-opacity="0"></use></g></g><g><use xlink:href="#dmg92ZxsG" opacity="1" fill="#2f2e41" fill-opacity="1"></use><g><use xlink:href="#dmg92ZxsG" opacity="1" fill-opacity="0" stroke="#000000" stroke-width="1" stroke-opacity="0"></use></g></g><g><use xlink:href="#a9z7SFIqM" opacity="1" fill="#f2f2f2" fill-opacity="1"></use><g><use xlink:href="#a9z7SFIqM" opacity="1" fill-opacity="0" stroke="#000000" stroke-width="1" stroke-opacity="0"></use></g></g><g><use xlink:href="#e2bNNfuFdx" opacity="1" fill="#f2f2f2" fill-opacity="1"></use><g><use xlink:href="#e2bNNfuFdx" opacity="1" fill-opacity="0" stroke="#000000" stroke-width="1" stroke-opacity="0"></use></g></g><g><use xlink:href="#eg1PrKkNX" opacity="1" fill="#2f2e41" fill-opacity="1"></use><g><use xlink:href="#eg1PrKkNX" opacity="1" fill-opacity="0" stroke="#000000" stroke-width="1" stroke-opacity="0"></use></g></g><g><use xlink:href="#b2HBmMMPHe" opacity="1" fill="#2f2e41" fill-opacity="1"></use><g><use xlink:href="#b2HBmMMPHe" opacity="1" fill-opacity="0" stroke="#000000" stroke-width="1" stroke-opacity="0"></use></g></g><g><use xlink:href="#a1iG08slP" opacity="1" fill="#2f2e41" fill-opacity="1"></use><g><use xlink:href="#a1iG08slP" opacity="1" fill-opacity="0" stroke="#000000" stroke-width="1" stroke-opacity="0"></use></g></g><g><use xlink:href="#avoXtOpQk" opacity="1" fill="#ffffff" fill-opacity="1"></use><g><use xlink:href="#avoXtOpQk" opacity="1" fill-opacity="0" stroke="#000000" stroke-width="1" stroke-opacity="0"></use></g></g><g><use xlink:href="#cGtNhYvX7" opacity="1" fill="#ffffff" fill-opacity="1"></use><g><use xlink:href="#cGtNhYvX7" opacity="1" fill-opacity="0" stroke="#000000" stroke-width="1" stroke-opacity="0"></use></g></g><g><use xlink:href="#b1wyseSzZO" opacity="1" fill="#2f2e41" fill-opacity="1"></use><g><use xlink:href="#b1wyseSzZO" opacity="1" fill-opacity="0" stroke="#000000" stroke-width="1" stroke-opacity="0"></use></g></g><g><use xlink:href="#d7Z5YOO7ig" opacity="1" fill="#ffffff" fill-opacity="1"></use><g><use xlink:href="#d7Z5YOO7ig" opacity="1" fill-opacity="0" stroke="#000000" stroke-width="1" stroke-opacity="0"></use></g></g><g><use xlink:href="#ayIxlcZz0" opacity="1" fill="#2f2e41" fill-opacity="1"></use><g><use xlink:href="#ayIxlcZz0" opacity="1" fill-opacity="0" stroke="#000000" stroke-width="1" stroke-opacity="0"></use></g></g><g><use xlink:href="#a2hVMLdDE9" opacity="1" fill="#2f2e41" fill-opacity="1"></use><g><use xlink:href="#a2hVMLdDE9" opacity="1" fill-opacity="0" stroke="#000000" stroke-width="1" stroke-opacity="0"></use></g></g><g><use xlink:href="#b4AsnVNiFe" opacity="1" fill="#ffffff" fill-opacity="1"></use><g><use xlink:href="#b4AsnVNiFe" opacity="1" fill-opacity="0" stroke="#000000" stroke-width="1" stroke-opacity="0"></use></g></g><g><use xlink:href="#dpIkTCV7d" opacity="1" fill="#3f3d56" fill-opacity="1"></use><g><use xlink:href="#dpIkTCV7d" opacity="1" fill-opacity="0" stroke="#000000" stroke-width="1" stroke-opacity="0"></use></g></g><g><use xlink:href="#cIsnFL1iX" opacity="1" fill="#3f3d56" fill-opacity="1"></use><g><use xlink:href="#cIsnFL1iX" opacity="1" fill-opacity="0" stroke="#000000" stroke-width="1" stroke-opacity="0"></use></g></g><g><use xlink:href="#a4lY2TTQYw" opacity="1" fill="#3f3d56" fill-opacity="1"></use><g><use xlink:href="#a4lY2TTQYw" opacity="1" fill-opacity="0" stroke="#000000" stroke-width="1" stroke-opacity="0"></use></g></g><g><use xlink:href="#a1bxYciYJm" opacity="1" fill="#2f2e41" fill-opacity="1"></use><g><use xlink:href="#a1bxYciYJm" opacity="1" fill-opacity="0" stroke="#000000" stroke-width="1" stroke-opacity="0"></use></g></g><g><use xlink:href="#f3GMHg4QD" opacity="1" fill="#f2f2f2" fill-opacity="1"></use><g><use xlink:href="#f3GMHg4QD" opacity="1" fill-opacity="0" stroke="#000000" stroke-width="1" stroke-opacity="0"></use></g></g><g><use xlink:href="#d6s2MImGJk" opacity="1" fill="#f2f2f2" fill-opacity="1"></use><g><use xlink:href="#d6s2MImGJk" opacity="1" fill-opacity="0" stroke="#000000" stroke-width="1" stroke-opacity="0"></use></g></g><g><use xlink:href="#i8CSv4onp" opacity="1" fill="#2f2e41" fill-opacity="1"></use><g><use xlink:href="#i8CSv4onp" opacity="1" fill-opacity="0" stroke="#000000" stroke-width="1" stroke-opacity="0"></use></g></g><g><use xlink:href="#a1ec0a2X3l" opacity="1" fill="#2f2e41" fill-opacity="1"></use><g><use xlink:href="#a1ec0a2X3l" opacity="1" fill-opacity="0" stroke="#000000" stroke-width="1" stroke-opacity="0"></use></g></g><g><use xlink:href="#cpucKX1IH" opacity="1" fill="#2f2e41" fill-opacity="1"></use><g><use xlink:href="#cpucKX1IH" opacity="1" fill-opacity="0" stroke="#000000" stroke-width="1" stroke-opacity="0"></use></g></g><g><use xlink:href="#c6uEWeYhs4" opacity="1" fill="#ffffff" fill-opacity="1"></use><g><use xlink:href="#c6uEWeYhs4" opacity="1" fill-opacity="0" stroke="#000000" stroke-width="1" stroke-opacity="0"></use></g></g><g><use xlink:href="#f4Fs3obi7K" opacity="1" fill="#ffffff" fill-opacity="1"></use><g><use xlink:href="#f4Fs3obi7K" opacity="1" fill-opacity="0" stroke="#000000" stroke-width="1" stroke-opacity="0"></use></g></g><g><use xlink:href="#a1qZwnY7XE" opacity="1" fill="#2f2e41" fill-opacity="1"></use><g><use xlink:href="#a1qZwnY7XE" opacity="1" fill-opacity="0" stroke="#000000" stroke-width="1" stroke-opacity="0"></use></g></g><g><use xlink:href="#aVQzIWXP" opacity="1" fill="#ffffff" fill-opacity="1"></use><g><use xlink:href="#aVQzIWXP" opacity="1" fill-opacity="0" stroke="#000000" stroke-width="1" stroke-opacity="0"></use></g></g><g><use xlink:href="#c313RdbSTU" opacity="1" fill="#2f2e41" fill-opacity="1"></use><g><use xlink:href="#c313RdbSTU" opacity="1" fill-opacity="0" stroke="#000000" stroke-width="1" stroke-opacity="0"></use></g></g><g><use xlink:href="#b1EZWQ3lA" opacity="1" fill="#2f2e41" fill-opacity="1"></use><g><use xlink:href="#b1EZWQ3lA" opacity="1" fill-opacity="0" stroke="#000000" stroke-width="1" stroke-opacity="0"></use></g></g><g><use xlink:href="#ddcuSOo4K" opacity="1" fill="#ff6584" fill-opacity="1"></use><g><use xlink:href="#ddcuSOo4K" opacity="1" fill-opacity="0" stroke="#000000" stroke-width="1" stroke-opacity="0"></use></g></g><g><use xlink:href="#b1ikMpUdy9" opacity="1" fill="#ff6584" fill-opacity="1"></use><g><use xlink:href="#b1ikMpUdy9" opacity="1" fill-opacity="0" stroke="#000000" stroke-width="1" stroke-opacity="0"></use></g></g><g><use xlink:href="#akG2zTlIG" opacity="1" fill="#3f3d56" fill-opacity="1"></use><g><use xlink:href="#akG2zTlIG" opacity="1" fill-opacity="0" stroke="#000000" stroke-width="1" stroke-opacity="0"></use></g></g><g><use xlink:href="#d9mxpBXj" opacity="1" fill="#ffb8b8" fill-opacity="1"></use><g><use xlink:href="#d9mxpBXj" opacity="1" fill-opacity="0" stroke="#000000" stroke-width="1" stroke-opacity="0"></use></g></g><g><use xlink:href="#aoMnj9tf8" opacity="1" fill="#2f2e41" fill-opacity="1"></use><g><use xlink:href="#aoMnj9tf8" opacity="1" fill-opacity="0" stroke="#000000" stroke-width="1" stroke-opacity="0"></use></g></g><g><use xlink:href="#c1kchNKho2" opacity="1" fill="#ffb8b8" fill-opacity="1"></use><g><use xlink:href="#c1kchNKho2" opacity="1" fill-opacity="0" stroke="#000000" stroke-width="1" stroke-opacity="0"></use></g></g><g><use xlink:href="#a80jCGUg5" opacity="1" fill="#ffb8b8" fill-opacity="1"></use><g><use xlink:href="#a80jCGUg5" opacity="1" fill-opacity="0" stroke="#000000" stroke-width="1" stroke-opacity="0"></use></g></g><g><use xlink:href="#b3IpmluFZD" opacity="1" fill="#6c63ff" fill-opacity="1"></use><g><use xlink:href="#b3IpmluFZD" opacity="1" fill-opacity="0" stroke="#000000" stroke-width="1" stroke-opacity="0"></use></g></g><g><use xlink:href="#c2wPnEJ8Oq" opacity="1" fill="#6c63ff" fill-opacity="1"></use><g><use xlink:href="#c2wPnEJ8Oq" opacity="1" fill-opacity="0" stroke="#000000" stroke-width="1" stroke-opacity="0"></use></g></g><g><use xlink:href="#ekRP0aflc" opacity="1" fill="#6c63ff" fill-opacity="1"></use><g><use xlink:href="#ekRP0aflc" opacity="1" fill-opacity="0" stroke="#000000" stroke-width="1" stroke-opacity="0"></use></g></g><g><use xlink:href="#eh3j1sx5e" opacity="1" fill="#ffb8b8" fill-opacity="1"></use><g><use xlink:href="#eh3j1sx5e" opacity="1" fill-opacity="0" stroke="#000000" stroke-width="1" stroke-opacity="0"></use></g></g><g><use xlink:href="#asgsHbdpt" opacity="1" fill="#6c63ff" fill-opacity="1"></use><g><use xlink:href="#asgsHbdpt" opacity="1" fill-opacity="0" stroke="#000000" stroke-width="1" stroke-opacity="0"></use></g></g><g><use xlink:href="#a3juXgd5d4" opacity="1" fill="#ffb8b8" fill-opacity="1"></use><g><use xlink:href="#a3juXgd5d4" opacity="1" fill-opacity="0" stroke="#000000" stroke-width="1" stroke-opacity="0"></use></g></g><g><use xlink:href="#b2JEbysIVl" opacity="1" fill="#ff6584" fill-opacity="1"></use><g><use xlink:href="#b2JEbysIVl" opacity="1" fill-opacity="0" stroke="#000000" stroke-width="1" stroke-opacity="0"></use></g></g><g><use xlink:href="#bTo0C6Hcw" opacity="1" fill="#ffb8b8" fill-opacity="1"></use><g><use xlink:href="#bTo0C6Hcw" opacity="1" fill-opacity="0" stroke="#000000" stroke-width="1" stroke-opacity="0"></use></g></g><g><use xlink:href="#b4SJ877AGi" opacity="1" fill="#ff6584" fill-opacity="1"></use><g><use xlink:href="#b4SJ877AGi" opacity="1" fill-opacity="0" stroke="#000000" stroke-width="1" stroke-opacity="0"></use></g></g><g><use xlink:href="#b1egqFi3wx" opacity="1" fill="#f2f2f2" fill-opacity="1"></use><g><use xlink:href="#b1egqFi3wx" opacity="1" fill-opacity="0" stroke="#000000" stroke-width="1" stroke-opacity="0"></use></g></g><g><use xlink:href="#a1tJ6D7dIv" opacity="1" fill="#f2f2f2" fill-opacity="1"></use><g><use xlink:href="#a1tJ6D7dIv" opacity="1" fill-opacity="0" stroke="#000000" stroke-width="1" stroke-opacity="0"></use></g></g><g><use xlink:href="#a2eufZodFP" opacity="1" fill="#f2f2f2" fill-opacity="1"></use><g><use xlink:href="#a2eufZodFP" opacity="1" fill-opacity="0" stroke="#000000" stroke-width="1" stroke-opacity="0"></use></g></g><g><use xlink:href="#d4eA2o5SGY" opacity="1" fill="#f2f2f2" fill-opacity="1"></use><g><use xlink:href="#d4eA2o5SGY" opacity="1" fill-opacity="0" stroke="#000000" stroke-width="1" stroke-opacity="0"></use></g></g><g><use xlink:href="#a1brU6hgXb" opacity="1" fill="#f2f2f2" fill-opacity="1"></use><g><use xlink:href="#a1brU6hgXb" opacity="1" fill-opacity="0" stroke="#000000" stroke-width="1" stroke-opacity="0"></use></g></g><g><use xlink:href="#b1FBXom02" opacity="1" fill="#f2f2f2" fill-opacity="1"></use><g><use xlink:href="#b1FBXom02" opacity="1" fill-opacity="0" stroke="#000000" stroke-width="1" stroke-opacity="0"></use></g></g><g><use xlink:href="#f6ukXUJgFO" opacity="1" fill="#f2f2f2" fill-opacity="1"></use><g><use xlink:href="#f6ukXUJgFO" opacity="1" fill-opacity="0" stroke="#000000" stroke-width="1" stroke-opacity="0"></use></g></g><g><use xlink:href="#c2nLkigwnZ" opacity="1" fill="#f2f2f2" fill-opacity="1"></use><g><use xlink:href="#c2nLkigwnZ" opacity="1" fill-opacity="0" stroke="#000000" stroke-width="1" stroke-opacity="0"></use></g></g><g><use xlink:href="#aGPzIHYI" opacity="1" fill="#f2f2f2" fill-opacity="1"></use><g><use xlink:href="#aGPzIHYI" opacity="1" fill-opacity="0" stroke="#000000" stroke-width="1" stroke-opacity="0"></use></g></g><g><use xlink:href="#c1BsfaxIY" opacity="1" fill="#f2f2f2" fill-opacity="1"></use><g><use xlink:href="#c1BsfaxIY" opacity="1" fill-opacity="0" stroke="#000000" stroke-width="1" stroke-opacity="0"></use></g></g><g><use xlink:href="#cItePBIU" opacity="1" fill="#f2f2f2" fill-opacity="1"></use><g><use xlink:href="#cItePBIU" opacity="1" fill-opacity="0" stroke="#000000" stroke-width="1" stroke-opacity="0"></use></g></g><g><use xlink:href="#b1kE0aIPAH" opacity="1" fill="#f2f2f2" fill-opacity="1"></use><g><use xlink:href="#b1kE0aIPAH" opacity="1" fill-opacity="0" stroke="#000000" stroke-width="1" stroke-opacity="0"></use></g></g><g><use xlink:href="#b3DbcwMcH3" opacity="1" fill="#f2f2f2" fill-opacity="1"></use><g><use xlink:href="#b3DbcwMcH3" opacity="1" fill-opacity="0" stroke="#000000" stroke-width="1" stroke-opacity="0"></use></g></g><g><use xlink:href="#f49YnnyygE" opacity="1" fill="#f2f2f2" fill-opacity="1"></use><g><use xlink:href="#f49YnnyygE" opacity="1" fill-opacity="0" stroke="#000000" stroke-width="1" stroke-opacity="0"></use></g></g><g><use xlink:href="#c3MxZjBPkx" opacity="1" fill="#f2f2f2" fill-opacity="1"></use><g><use xlink:href="#c3MxZjBPkx" opacity="1" fill-opacity="0" stroke="#000000" stroke-width="1" stroke-opacity="0"></use></g></g><g><use xlink:href="#k4sxPhj4Jk" opacity="1" fill="#f2f2f2" fill-opacity="1"></use><g><use xlink:href="#k4sxPhj4Jk" opacity="1" fill-opacity="0" stroke="#000000" stroke-width="1" stroke-opacity="0"></use></g></g><g><use xlink:href="#a1JwzNum08" opacity="1" fill="#f2f2f2" fill-opacity="1"></use><g><use xlink:href="#a1JwzNum08" opacity="1" fill-opacity="0" stroke="#000000" stroke-width="1" stroke-opacity="0"></use></g></g><g><use xlink:href="#f2CiDLyuxA" opacity="1" fill="#f2f2f2" fill-opacity="1"></use><g><use xlink:href="#f2CiDLyuxA" opacity="1" fill-opacity="0" stroke="#000000" stroke-width="1" stroke-opacity="0"></use></g></g><g><use xlink:href="#dbepurePq" opacity="1" fill="#f2f2f2" fill-opacity="1"></use><g><use xlink:href="#dbepurePq" opacity="1" fill-opacity="0" stroke="#000000" stroke-width="1" stroke-opacity="0"></use></g></g><g><use xlink:href="#e1mlkhy6ly" opacity="1" fill="#f2f2f2" fill-opacity="1"></use><g><use xlink:href="#e1mlkhy6ly" opacity="1" fill-opacity="0" stroke="#000000" stroke-width="1" stroke-opacity="0"></use></g></g><g><use xlink:href="#ey6hJPL4p" opacity="1" fill="#f2f2f2" fill-opacity="1"></use><g><use xlink:href="#ey6hJPL4p" opacity="1" fill-opacity="0" stroke="#000000" stroke-width="1" stroke-opacity="0"></use></g></g><g><use xlink:href="#a1IB2AxXQA" opacity="1" fill="#f2f2f2" fill-opacity="1"></use><g><use xlink:href="#a1IB2AxXQA" opacity="1" fill-opacity="0" stroke="#000000" stroke-width="1" stroke-opacity="0"></use></g></g><g><use xlink:href="#dalk8tyuQ" opacity="1" fill="#f2f2f2" fill-opacity="1"></use><g><use xlink:href="#dalk8tyuQ" opacity="1" fill-opacity="0" stroke="#000000" stroke-width="1" stroke-opacity="0"></use></g></g><g><use xlink:href="#blTCHWVsc" opacity="1" fill="#f2f2f2" fill-opacity="1"></use><g><use xlink:href="#blTCHWVsc" opacity="1" fill-opacity="0" stroke="#000000" stroke-width="1" stroke-opacity="0"></use></g></g><g><use xlink:href="#cgw5lKsgd" opacity="1" fill="#f2f2f2" fill-opacity="1"></use><g><use xlink:href="#cgw5lKsgd" opacity="1" fill-opacity="0" stroke="#000000" stroke-width="1" stroke-opacity="0"></use></g></g><g><use xlink:href="#b3BEB9hOgw" opacity="1" fill="#f2f2f2" fill-opacity="1"></use><g><use xlink:href="#b3BEB9hOgw" opacity="1" fill-opacity="0" stroke="#000000" stroke-width="1" stroke-opacity="0"></use></g></g><g><use xlink:href="#fXLx2hFd" opacity="1" fill="#f2f2f2" fill-opacity="1"></use><g><use xlink:href="#fXLx2hFd" opacity="1" fill-opacity="0" stroke="#000000" stroke-width="1" stroke-opacity="0"></use></g></g><g><use xlink:href="#h4h3L2y890" opacity="1" fill="#f2f2f2" fill-opacity="1"></use><g><use xlink:href="#h4h3L2y890" opacity="1" fill-opacity="0" stroke="#000000" stroke-width="1" stroke-opacity="0"></use></g></g><g><use xlink:href="#f2PE9VG78h" opacity="1" fill="#f2f2f2" fill-opacity="1"></use><g><use xlink:href="#f2PE9VG78h" opacity="1" fill-opacity="0" stroke="#000000" stroke-width="1" stroke-opacity="0"></use></g></g><g><use xlink:href="#a4Ar0lqrsj" opacity="1" fill="#f2f2f2" fill-opacity="1"></use><g><use xlink:href="#a4Ar0lqrsj" opacity="1" fill-opacity="0" stroke="#000000" stroke-width="1" stroke-opacity="0"></use></g></g><g><use xlink:href="#a1DirCZAEb" opacity="1" fill="#f2f2f2" fill-opacity="1"></use><g><use xlink:href="#a1DirCZAEb" opacity="1" fill-opacity="0" stroke="#000000" stroke-width="1" stroke-opacity="0"></use></g></g><g><use xlink:href="#aguDebcIc" opacity="1" fill="#f2f2f2" fill-opacity="1"></use><g><use xlink:href="#aguDebcIc" opacity="1" fill-opacity="0" stroke="#000000" stroke-width="1" stroke-opacity="0"></use></g></g><g><use xlink:href="#e4iSkz2Ck" opacity="1" fill="#f2f2f2" fill-opacity="1"></use><g><use xlink:href="#e4iSkz2Ck" opacity="1" fill-opacity="0" stroke="#000000" stroke-width="1" stroke-opacity="0"></use></g></g><g><use xlink:href="#ceyu7UWaK" opacity="1" fill="#f2f2f2" fill-opacity="1"></use><g><use xlink:href="#ceyu7UWaK" opacity="1" fill-opacity="0" stroke="#000000" stroke-width="1" stroke-opacity="0"></use></g></g><g><use xlink:href="#a8fOZE0JGy" opacity="1" fill="#f2f2f2" fill-opacity="1"></use><g><use xlink:href="#a8fOZE0JGy" opacity="1" fill-opacity="0" stroke="#000000" stroke-width="1" stroke-opacity="0"></use></g></g><g><use xlink:href="#d11k16A9kU" opacity="1" fill="#f2f2f2" fill-opacity="1"></use><g><use xlink:href="#d11k16A9kU" opacity="1" fill-opacity="0" stroke="#000000" stroke-width="1" stroke-opacity="0"></use></g></g></g></g></svg>