<svg xmlns="http://www.w3.org/2000/svg" viewBox="0 0 496 462.91" width="496" height="462.91"><path d="M260.916 185.76h-24v-55.2c0-14.4-9.6-25.6-23.2-25.6s-24 8.8-24 24.8h-24c0-24 20-49.6 47.2-49.6 27.2 0 47.2 22.4 47.2 49.6v56h.8z" fill="#4c5254"/><path d="M288 274.11c0 7.2-5.6 12.8-12.8 12.8h-53.6c-7.2 0-12.8-5.6-12.8-12.8v-77.6c0-7.2 5.6-12.8 12.8-12.8h53.6c7.2 0 12.8 5.6 12.8 12.8v77.6z" fill="#3a2819"/><path d="M496 440.51c0 10.4-8 22.4-18.4 22.4H18.4c-10.4 0-18.4-12-18.4-22.4v-192.8c0-10.4 8-16.8 18.4-16.8h459.2c10.4 0 18.4 6.4 18.4 16.8v192.8z" fill="#a09d93"/><path d="M496 415.71c0 10.4-8 15.2-18.4 15.2H18.4c-10.4 0-18.4-4.8-18.4-15.2v-192.8c0-10.4 8-16 18.4-16h459.2c10.4 0 18.4 5.6 18.4 16v192.8z" fill="#d8d6ca"/><path d="M16 206.91h461.6c10.4 0 18.4 5.6 18.4 16v192.8c0 10.4-8 15.2-18.4 15.2" fill="#c1bdae"/><path d="M280 309.31c0 .8-.8 1.6-1.6 1.6h-60.8c-.8 0-1.6-.8-1.6-1.6v-12.8c0-.8.8-1.6 1.6-1.6h60.8c.8 0 1.6.8 1.6 1.6v12.8z" fill="#f9a12c"/><path d="M224 294.91h56v14.4c0 .8-.8 1.6-1.6 1.6" fill="#e88813"/><path d="M280 349.31c0 .8-.8 1.6-1.6 1.6h-60.8c-.8 0-1.6-.8-1.6-1.6v-12.8c0-.8.8-1.6 1.6-1.6h60.8c.8 0 1.6.8 1.6 1.6v12.8z" fill="#f9a12c"/><path d="M224 334.91h56v14.4c0 .8-.8 1.6-1.6 1.6" fill="#e88813"/><path d="M184 383.71c0 7.2-4.8 15.2-12 15.2H42.4c-7.2 0-10.4-8-10.4-15.2v-128.8c0-7.2 3.2-16 10.4-16h128.8c7.2 0 12 8 12 16v128.8h.8zm280 1.6c0 7.2-6.4 13.6-13.6 13.6H317.6c-7.2 0-13.6-6.4-13.6-13.6v-132.8c0-7.2 6.4-13.6 13.6-13.6h132.8c7.2 0 13.6 6.4 13.6 13.6v132.8z" fill="#3a2819"/><path d="M152 294.91h-16v-20.8c0-5.6-5.6-11.2-10.4-11.2h-36c-5.6 0-9.6 5.6-9.6 11.2v20.8H62.4c-5.6 0-6.4.8-6.4 6.4v36c0 5.6.8 13.6 6.4 13.6H80v13.6c0 5.6 4 10.4 9.6 10.4h36c5.6 0 10.4-5.6 10.4-10.4v-13.6h16c5.6 0 8-8 8-13.6v-36c0-5.6-2.4-6.4-8-6.4z" fill="#ea1f0a"/><path d="M80 350.91v13.6c0 5.6 4 10.4 9.6 10.4h36c5.6 0 10.4-5.6 10.4-10.4v-13.6h16c5.6 0 8-8 8-13.6v-36c0-5.6-2.4-6.4-8-6.4h-16" fill="#bc0400"/><path d="M388.8 294.11c0 16.8-13.6 29.6-29.6 29.6-16.8 0-29.6-13.6-29.6-29.6 0-16.8 13.6-29.6 29.6-29.6s29.6 13.6 29.6 29.6z" fill="#329908"/><path d="M380 273.31c12 12 12 30.4 0 42.4s-30.4 12-42.4 0" fill="#236d00"/><path d="M444.8 344.51c0 16.8-13.6 29.6-29.6 29.6-16.8 0-29.6-13.6-29.6-29.6 0-16.8 13.6-29.6 29.6-29.6 16-.8 29.6 12.8 29.6 29.6z" fill="#07bed6"/><path d="M436 322.91c12 12 12 30.4 0 42.4s-30.4 12-42.4 0" fill="#00a1ad"/><path d="M474.4 222.91c0 3.2-2.4 8-5.6 8H27.2c-3.2 0-5.6-4.8-5.6-8s2.4-8 5.6-8h441.6c3.2 0 5.6 4.8 5.6 8z" fill="#d8d6ca"/><path d="M177.716 117.76c-6.4 0-12 5.6-12 12 0 14.4-10.4 25.6-24.8 25.6s-24-11.2-24-25.6v-128h-24v128c0 27.2 20.8 49.6 48.8 49.6 28 0 48.8-22.4 48.8-49.6 0-6.4-6.4-12-12.8-12z" fill="#28384c"/></svg>