<svg xmlns="http://www.w3.org/2000/svg" width="506.08" height="525.919" viewBox="0 0 474.45 493.049"><g transform="translate(-33.084 -61.659)" stroke="#000"><ellipse cx="102.738" cy="316.756" rx="21.466" ry="19.951" transform="rotate(.907)" fill="#8ed4fd" stroke-width="5" stroke-linecap="round" stroke-linejoin="bevel"/><ellipse ry="19.951" rx="21.466" cy="26.743" cx="529.072" transform="rotate(33.629)" fill="#8ed4fd" stroke-width="5" stroke-linecap="round" stroke-linejoin="bevel"/><path d="M135.704 227.383c-5.958-38.485-5.076-60.07 6.082-78.338 17.112-28.017 65.292-45.562 109.797-48.899 44.505-3.336 106.007 8.567 124.245 19.907 30.013 18.66 35.209 41.473 35.242 71.277.013 11.112-3.636 70.157-3.636 70.157S242.33 320.5 238.794 320.445c-3.534-.056-101.102-91.01-101.102-91.01z" fill="#8ed4fe" fill-rule="evenodd" stroke-width="5"/><path d="M142.218 166.87c-14.622-18.116-17.775-37.965-13.72-56.592 2.846-13.072 11.131-17.227 19.432-17.068 13.859.264 24.036 12.436 38.39 31.926m157.732-8.112c15.704-24.824 32.01-37.537 50.957-34.11 13.875 2.51 16 19.625 10.684 34.767-6.337 18.054-14 28.724-14.625 28.88" fill="#8ed4fe" fill-rule="evenodd" stroke-width="6" stroke-linecap="round"/><path d="M363.396 139.415c.683 1.975 12.775 5.292 15.48 3.638 3.958-2.42 14.56-28.188 13.195-32.474-3.824-12.008-29.117 27.556-28.675 28.836zM171.754 154.82c-.746 1.952-12.42 3.004-15.588 3.146-6.31.282-14.286-24.139-11.963-29.336 5.142-11.505 28.033 24.924 27.55 26.19z" fill-rule="evenodd"/><circle transform="scale(1 -1) rotate(-.907)" cy="-198.312" cx="338.411" r="48.614" fill="#fff" stroke-width="6" stroke-linecap="round" stroke-linejoin="bevel"/><circle cx="212.394" cy="-200.837" transform="scale(1 -1) rotate(-.907)" r="48.614" fill="#fff" stroke-width="6" stroke-linecap="round" stroke-linejoin="bevel"/><path d="M258.401 258.562c.04 5.923 4.64 18.51 4.64 18.51l17.064-.177s4.57-10.766 4.49-14.12c-.08-3.353-.989-4.932-.989-4.932z" fill="#fff" fill-rule="evenodd" stroke-width="4"/><path d="M243.693 253.394c-7.669 15.3 10.596 9.904 25.832 8.598 12.06-1.035 29.787 7.302 29.607-5.147-.311-21.513-45.604-23.073-55.44-3.45z" fill="#d3b78d" fill-rule="evenodd" stroke-width="4"/><ellipse cx="274.554" cy="-237.446" rx="17.708" ry="10.137" transform="scale(1 -1) rotate(-.907)" stroke-width="3" stroke-linecap="round" stroke-linejoin="bevel"/><circle cx="216.006" cy="211.047" transform="rotate(.907)" r="14.821" stroke-width="3" stroke-linecap="round" stroke-linejoin="bevel"/><circle cy="211.047" cx="331.72" transform="rotate(.907)" r="14.821" stroke-width="3" stroke-linecap="round" stroke-linejoin="bevel"/></g><g stroke="#000"><path d="M81.557 149.672c58.404 3.044 136.184 37.599 155.817 62.438 29.566-32.963 95.817-63.229 129.397-73.689 20.179.54 32.508 3.323 49.83 11.07l-19.436 54.524-114.134 79.757-92.218 4.024-132.524-67.21-13.623-42.026c8.017-10.521 22.292-19.738 36.89-28.888z" fill="#f6f0d7" fill-rule="evenodd" stroke-width="5" stroke-linejoin="bevel"/><path d="M375.512 150.345c-16.045 3.624-90.82 39.933-104.56 61.568M97.756 164.568c16.375 1.559 95.155 28.083 111.528 47.798" fill="none" stroke-opacity=".289"/></g><path d="M18.306 153.573c15.536-1.844 166.149 57.518 189.791 84.382 0 0 20.203-2.073 28.283-1.945 8.08.128 37.597-.487 37.597-.487 37.408-25.504 111.204-67.423 178.289-107.36-35.748 71.15-70.22 143.182-64.462 242.962l-118.198 94.77c-15.498 3.747-31.183 6.014-47.522 3.13 0 0-98.167-52.945-133.39-61.717C78.558 345.592 40.7 152.542 18.306 153.573z" fill="#e46b64" fill-rule="evenodd" stroke="#000" stroke-width="10" stroke-linejoin="bevel"/><path d="M209.068 240.223c9.044 56.328 5.734 168.09 12.085 229.505m54.111-235.502c-6.798 56.643.95 168.185-2.954 229.805" fill="none" stroke="#000"/><g style="line-height:125%"><path d="M360.422 233.917q1.52-3.572 3.105-5.85 1.65-2.317 3.367-3.34 2.97-1.772 4.502.492 1.597 2.225.84 10.261l-1.778 18.897q-.756 8.036-2.998 12.653-2.165 4.469-5.135 6.24-2.707 1.614-4.122.1-1.415-1.513-1.563-7.882-.033-4.286-1.184-5.957-2.246-3.273-6.855-3.292-4.543-.058-9.427 2.855-6.073 3.622-11.565 10.997-5.491 7.375-10.306 19.472-4.814 12.096-6.082 25.562l-1.36 14.444q-1.512 16.073 4.539 22.612 6.117 6.5 18.725-1.02 7.525-4.488 13.056-10.964 3.22-3.766 7.195-11.569 2.44-4.735 3.72-6.42 1.29-1.795 2.808-2.7 2.707-1.615 4.436.531 1.73 2.147 1.3 6.708-.43 4.561-3.692 11.427-4.742 10.003-11.488 18.127-9.067 10.942-19.365 17.084-12.014 7.164-20.884 4.767-7.176-1.87-11.336-12.612-4.15-10.85-2.586-27.466l1.42-15.095q1.636-17.376 7.932-35.276 6.371-18.048 15.85-31.39 9.48-13.34 19.25-19.167 5.875-3.504 10.743-4.254 4.944-.899 8.938 1.025z" style="line-height:125%;-inkscape-font-specification:'Courier New, Bold';text-align:start" font-weight="700" font-family="Courier New" font-size="168.461" letter-spacing="0" word-spacing="0"/></g><path d="M69.363 201.138c12.363 2.94 24.776 5.612 36.425 12.457 6.355 18.858 11.688 50.134 16.683 76.988-12.42-4.837-26.603-10.784-33.912-11.66-4.826-27.452-10.31-54.266-19.196-77.785z" fill-opacity=".15"/><g style="line-height:125%"><path d="M239.22 444.065l-.758.044q-.385.023-.555-.073-.17-.107-.173-.29-.005-.184.16-.3.164-.127.55-.15l2.993-.176q.398-.024.567.083.17.096.174.28.004.165-.148.29-.151.115-.498.155-1.078.112-1.893.994-1.118 1.19-1.085 2.621.022.939.593 1.738.413.596 1 .93 1.016.579 2.245.884.906.218 2.036.151l1.888-.111q2.415-.143 4.17-1.564 1.743-1.42 1.703-3.162-.024-1.045-.647-1.832-.623-.796-1.861-1.498-.274-.149-.278-.352-.004-.174.135-.289.138-.114.357-.127.295-.018.909.363 1.2.723 1.826 1.684.614.952.637 1.968.02.88-.408 1.817-.33.717-.783 1.199-.452.482-1.528 1.214-1.09.723-2.01 1.02-.931.297-2.049.363l-2.196.13q-1.593.093-3.265-.448-1.685-.55-2.597-1.61-.925-1.069-.955-2.375-.047-2.012 1.744-3.571zm2.259-7.477l2.723-.161q-1.937-1.475-2.495-2.227-.57-.76-.586-1.428-.017-.726.624-1.383.628-.667.962-.687.244-.014.414.102.157.107.161.29.002.097-.035.167-.05.07-.29.27-.441.364-.602.626-.162.261-.156.503.012.532.595 1.253.582.712 2.821 2.43l5.91-.348-.084-3.6q-.007-.3.145-.434.138-.134.382-.149.231-.014.388.103.158.117.164.417l.147 6.376q.007.29-.131.424-.152.135-.383.149-.218.012-.362-.095-.157-.117-.164-.417l-.045-1.964-8.992.53.034 1.5q.007.29-.144.426-.152.134-.396.149-.231.014-.388-.093-.157-.117-.164-.417l-.053-2.312zm5.187-17.726q2.467-.146 4.244 1.086 1.778 1.223 1.821 3.1.044 1.896-1.673 3.325-1.729 1.429-4.183 1.574-2.466.145-4.243-1.077-1.79-1.222-1.835-3.118-.043-1.877 1.674-3.306 1.716-1.438 4.195-1.584zm.02.822q-2.03.12-3.431 1.297-1.401 1.168-1.365 2.716.035 1.548 1.5 2.557 1.45.999 3.467.88 2.004-.118 3.417-1.287 1.414-1.178 1.378-2.726-.035-1.548-1.486-2.548-1.464-1.008-3.48-.889zm-5.132-10.558q-.373.022-.542-.084-.17-.106-.174-.28-.004-.184.16-.31t.563-.15l1.85-.109q.385-.023.554.084.17.106.174.29.004.164-.134.289-.14.114-.46.153-.77.103-1.258.675-.701.835-.67 2.142.03 1.364.78 2.075.566.539 1.246.498.771-.045 1.27-.753.348-.485.511-1.793.205-1.708.498-2.384.428-.965 1.214-1.467.786-.511 1.711-.566 1.374-.08 2.476.852 1.09.934 1.134 2.859.044 1.925-1.225 3.23.437-.025.566.006.13.031.222.132.092.092.095.217.004.175-.16.3-.165.127-.55.15l-2.222.13q-.386.023-.555-.073-.17-.107-.174-.29-.004-.175.16-.3.152-.135.421-.151.591-.035.984-.281.61-.375 1.003-1.135.381-.768.357-1.842-.037-1.587-.838-2.315-.802-.728-1.675-.676-1.002.06-1.588.878-.585.83-.756 2.36-.17 1.522-.49 2.2-.318.677-.978 1.084-.66.408-1.43.453-1.387.082-2.22-.896-.846-.977-.879-2.4-.039-1.683 1.029-2.802zm-.274-11.881q-.372.022-.542-.084-.17-.106-.174-.28-.004-.184.16-.31.165-.126.563-.15l1.85-.109q.385-.023.555.084.17.106.174.29.003.164-.135.289-.139.114-.46.153-.77.103-1.258.675-.7.835-.67 2.141.03 1.365.78 2.076.566.538 1.247.498.77-.045 1.269-.753.349-.486.512-1.793.205-1.708.498-2.384.428-.965 1.214-1.467.785-.511 1.71-.566 1.375-.081 2.477.852 1.089.934 1.133 2.859.045 1.925-1.225 3.23.437-.025.567.006.129.031.221.132.092.092.095.217.004.174-.16.3t-.55.15l-2.222.13q-.385.023-.555-.073-.17-.107-.174-.29-.004-.175.16-.3.152-.136.422-.151.59-.035.984-.281.608-.375 1.003-1.135.38-.768.356-1.842-.037-1.587-.838-2.315-.801-.728-1.675-.676-1.002.059-1.588.878-.585.83-.756 2.36-.17 1.522-.49 2.2-.318.677-.978 1.084-.66.407-1.43.453-1.387.082-2.22-.896-.846-.977-.879-2.4-.038-1.683 1.03-2.802zm1.902-13.472l1.542-.091.19 8.291-1.54.091-.192-8.291zm1.905-6.091l5.087-.3-.064-2.786q-.007-.29.145-.425.138-.135.382-.149.231-.014.388.103.157.117.164.407l.108 4.692q.007.29-.144.426-.152.135-.383.148-.244.015-.388-.103-.157-.117-.164-.407l-.025-1.093-12.872.76.026 1.093q.006.29-.132.424-.151.135-.395.15-.244.014-.389-.103-.157-.117-.163-.407l-.11-4.722q-.038-1.674 1.248-2.806 1.286-1.141 3.046-1.245 1.04-.062 1.883.237.843.29 1.33.746.736.683 1.087 1.437.257.547.277 1.379l.058 2.544zm-1.079.064l-.06-2.593q-.02-.9-.565-1.652-.558-.762-1.337-1.074-.779-.322-1.575-.275-1.272.075-2.268.957-.996.882-.967 2.14l.067 2.893 6.705-.396zm-9.2-13.534l15.042-.888-.073-3.193q-.007-.3.144-.435.138-.134.383-.148.23-.014.388.103.157.117.164.417l.166 7.198q.006.29-.145.425t-.382.149q-.244.014-.389-.103-.157-.117-.163-.407l-.074-3.193-13.95.823.054 2.342q.006.29-.145.434-.151.135-.395.15-.231.013-.388-.103-.157-.117-.164-.417l-.073-3.154zm15.803-14.758l-1.554.092q2.019 1.653 2.065 3.666.034 1.46-.923 2.34-.97.882-2.396.966-1.568.092-2.761-.922-1.194-1.015-1.242-3.095-.013-.561.074-1.225.075-.664.263-1.44l-1.747.103q-.886.052-1.527.71-.641.658-.613 1.897.022.948.794 2.617.136.302.138.39.003.154-.148.28-.152.115-.383.128-.219.013-.35-.076-.195-.124-.551-1.062-.575-1.478-.592-2.252-.036-1.538.96-2.459.981-.92 2.253-.995l7.142-.422-.025-1.083q-.007-.3.145-.435.138-.134.382-.149.231-.013.388.103.157.117.164.417l.044 1.906zm-5.37.317q-.204.583-.292 1.228t-.072 1.351q.04 1.77 1.078 2.707.776.71 1.829.648.976-.058 1.631-.668.655-.62.63-1.723-.025-1.054-.598-1.922-.586-.876-1.829-1.761l-2.376.14zm-5.936-7.536l-.101-4.412q-.007-.29.144-.425.152-.135.396-.15.231-.013.388.104.157.116.164.406l.101 4.412 7.181-.423q.938-.056 1.554-.654.617-.608.591-1.701-.018-.823-.362-1.762-.356-.938-.78-1.446-.17-.183-.173-.31-.004-.154.16-.28.152-.125.37-.138.193-.011.363.105.43.284.96 1.454.515 1.162.54 2.255.033 1.422-.834 2.316-.867.894-2.37.983l-7.18.424.034 1.5q.007.29-.145.425-.15.134-.395.149-.231.014-.388-.103-.157-.117-.164-.407l-.035-1.5-3.185.188q-.386.023-.555-.083-.17-.106-.174-.28-.004-.184.16-.31t.55-.15l3.185-.187zm.793-13.078l8.953-.528-.082-3.57q-.007-.29.144-.426.139-.134.383-.148.231-.014.388.103.157.117.164.407l.146 6.357q.007.29-.144.425-.152.135-.383.148-.244.015-.388-.103-.157-.117-.164-.407l-.045-1.964-8.953.529.04 1.76q.007.29-.144.426-.152.135-.396.149-.231.014-.388-.103-.157-.117-.164-.407l-.04-1.76-1.632.095q-1.361.08-2.383-.692-1.02-.773-1.052-2.147-.027-1.151.226-2.474.091-.5.23-.605.139-.115.37-.128.231-.014.388.093.144.108.149.301.002.078-.033.264-.262 1.478-.238 2.485.024 1.064.731 1.603.707.53 1.593.478l1.632-.096-.088-3.803q-.007-.29.145-.425.15-.135.395-.15.231-.013.388.104.157.117.164.407l.088 3.802zm4.105-17.226q2.466-.145 4.244 1.087 1.778 1.222 1.82 3.1.044 1.895-1.672 3.324-1.73 1.43-4.183 1.574-2.466.146-4.244-1.077-1.79-1.221-1.834-3.118-.043-1.877 1.673-3.305 1.717-1.438 4.196-1.585zm.019.823q-2.03.12-3.43 1.297-1.401 1.168-1.366 2.716.036 1.548 1.5 2.556 1.45 1 3.467.88 2.004-.118 3.418-1.286 1.414-1.179 1.378-2.727-.036-1.548-1.487-2.547-1.463-1.008-3.48-.89zm-5.754-6.859l2.724-.161q-1.938-1.475-2.496-2.226-.57-.761-.586-1.429-.016-.725.624-1.383.628-.667.962-.687.244-.014.414.102.157.107.161.29.003.097-.035.167-.05.071-.29.27-.441.365-.602.626-.161.261-.156.503.012.532.595 1.254.582.711 2.822 2.43l5.909-.35-.083-3.598q-.007-.3.144-.435.138-.134.383-.149.23-.013.388.103.157.117.164.417l.147 6.376q.006.29-.132.424-.151.135-.383.149-.218.013-.362-.095-.157-.117-.164-.417l-.045-1.964-8.992.531.034 1.5q.007.29-.144.425t-.395.15q-.232.013-.388-.094-.158-.117-.164-.417l-.054-2.312zm-.21-9.153l1.091-.064q-1.5-.949-1.525-1.993-.014-.63.424-1.13.426-.5 1.318-.872-.912-.489-1.361-1.015-.463-.534-.476-1.095-.02-.88.726-1.448.96-.745 2.117-.813l7.54-.445-.016-.687q-.006-.29.145-.425.138-.134.382-.149.231-.013.389.104.157.116.163.406l.035 1.5-8.517.503q-.822.048-1.353.458-.53.409-.52.902.011.445.472.912.448.468 1.76 1.02l7.155-.422-.016-.678q-.006-.29.145-.425.138-.134.382-.148.232-.014.389.103.157.117.163.407l.035 1.5-8.44.498q-.86.05-1.404.47-.556.41-.545.885.01.435.392.839.54.559 1.84 1.131l7.155-.422-.016-.687q-.007-.29.145-.425.138-.134.382-.149.231-.013.388.103.157.117.164.407l.05 2.187q.007.29-.144.425t-.383.149q-.244.014-.388-.103-.157-.117-.164-.407l-.015-.687-8.954.528.016.687q.007.29-.145.425-.15.135-.395.15-.231.013-.388-.103-.157-.117-.164-.407l-.034-1.5zm-3.143-30.895l-.758.045q-.386.023-.555-.074-.17-.106-.174-.29-.004-.184.16-.3.165-.126.55-.149l2.993-.176q.398-.024.568.082.17.097.174.28.003.165-.148.29-.152.116-.498.156-1.078.112-1.894.993-1.117 1.19-1.084 2.622.021.938.593 1.738.412.596.999.93 1.017.579 2.246.884.905.218 2.035.15l1.889-.11q2.415-.143 4.17-1.564 1.742-1.42 1.702-3.162-.024-1.045-.646-1.832-.623-.796-1.862-1.498-.273-.149-.278-.352-.004-.174.135-.29.139-.114.357-.127.296-.017.91.363 1.2.724 1.826 1.685.613.952.637 1.968.02.88-.408 1.816-.331.717-.783 1.2-.452.481-1.529 1.213-1.09.723-2.009 1.02-.932.297-2.05.363l-2.196.13q-1.593.094-3.265-.447-1.685-.55-2.596-1.61-.926-1.07-.956-2.375-.046-2.013 1.745-3.572z" style="line-height:125%;-inkscape-font-specification:'Courier New, Normal';text-align:start" font-weight="400" font-size="22.847" font-family="Courier New" letter-spacing="0" word-spacing="0"/></g><path d="M88.648 299.352c12.364 2.94 86.562 32.398 98.211 39.243-1.196 21.614 4.096 53.164 8.469 78.774-12.42-4.837-84.46-35.784-91.77-36.66-4.825-27.452-6.024-57.838-14.91-81.357z" fill-opacity=".15"/></svg>