<svg xmlns="http://www.w3.org/2000/svg" viewBox="0 0 512 512"><path d="M481.103 512H30.897C13.833 512 0 498.167 0 481.103V83.862c0-17.064 13.833-30.897 30.897-30.897h450.207c17.064 0 30.897 13.833 30.897 30.897v397.241C512 498.167 498.167 512 481.103 512z" fill="#e7eced"/><path d="M512 105.931H0V30.897C0 13.833 13.833 0 30.897 0h450.207C498.167 0 512 13.833 512 30.897v75.034z" fill="#28384c"/><path fill="#dd352e" d="M35.31 35.31h35.31v35.31H35.31z"/><path fill="#ebba16" d="M105.931 35.31h35.31v35.31h-35.31z"/><path fill="#23a24d" d="M176.552 35.31h35.31v35.31h-35.31z"/><path d="M423.724 335.448v-52.966h-20.242c-9.075 0-17.337-5.782-19.897-14.486-2.675-9.084-6.285-14.415-10.734-22.581-4.352-7.989-2.657-17.938 3.778-24.373l14.327-14.327L358.241 174l-14.327 14.327c-6.435 6.435-16.384 8.13-24.373 3.778-8.166-4.449-13.497-8.06-22.581-10.734-8.695-2.551-14.477-10.814-14.477-19.889V141.24h-52.966v20.242c0 9.075-5.782 17.337-14.486 19.897-9.084 2.675-14.415 6.285-22.581 10.734-7.989 4.352-17.938 2.657-24.373-3.778l-14.327-14.327-32.715 32.715 14.327 14.327c6.435 6.435 8.13 16.384 3.778 24.373-4.449 8.166-8.06 13.497-10.734 22.581-2.551 8.695-10.814 14.477-19.889 14.477H88.276v52.966h20.242c9.075 0 17.337 5.782 19.897 14.486 2.675 9.084 6.285 14.415 10.734 22.581 4.352 7.989 2.657 17.938-3.778 24.373l-14.327 14.327 32.715 32.715 14.327-14.327c6.435-6.435 16.384-8.13 24.373-3.778 8.166 4.449 13.497 8.06 22.581 10.734 8.695 2.551 14.477 10.814 14.477 19.889v20.242h52.966v-20.242c0-9.075 5.782-17.337 14.486-19.897 9.084-2.675 14.415-6.285 22.581-10.734 7.989-4.352 17.938-2.657 24.373 3.778l14.327 14.327 32.715-32.715-14.327-14.327c-6.435-6.435-8.13-16.384-3.778-24.373 4.449-8.166 8.06-13.497 10.734-22.581 2.551-8.695 10.814-14.477 19.889-14.477h20.241z" fill="#366db6"/><circle cx="256" cy="308.966" r="97.103" fill="#fff"/><path d="M220.69 344.276c-2.26 0-4.52-.865-6.241-2.586l-26.483-26.483a8.817 8.817 0 0 1 0-12.482l26.483-26.483a8.817 8.817 0 0 1 12.482 0 8.817 8.817 0 0 1 0 12.482l-20.242 20.242 20.242 20.242a8.817 8.817 0 0 1 0 12.482 8.805 8.805 0 0 1-6.241 2.586zm70.62 0c-2.26 0-4.52-.865-6.241-2.586a8.817 8.817 0 0 1 0-12.482l20.242-20.242-20.242-20.242a8.817 8.817 0 0 1 0-12.482 8.817 8.817 0 0 1 12.482 0l26.483 26.483a8.817 8.817 0 0 1 0 12.482l-26.483 26.483a8.803 8.803 0 0 1-6.241 2.586zm-44.138 0a9.286 9.286 0 0 1-2.428-.335c-4.687-1.342-7.406-6.232-6.065-10.911l17.655-61.793c1.342-4.687 6.223-7.371 10.911-6.073 4.687 1.342 7.406 6.232 6.065 10.911l-17.655 61.793c-1.103 3.883-4.634 6.408-8.483 6.408z" fill="#dd352e"/></svg>