<svg xmlns="http://www.w3.org/2000/svg" xmlns:xlink="http://www.w3.org/1999/xlink" viewBox="0 0 1024 800" width="1024" height="800"><defs><path d="M1019.93 718v3H.07v-3h1019.86z" id="a"/><path d="M31.06 594.02V138.07h355.96v455.95H31.06zm2-2h351.96V140.07H33.06v451.95z" id="b"/><path d="M363.02 166.07v194.98H55.06V166.07h307.96z" id="c"/><path d="M363.02 353.05v208.97H55.06V353.05h307.96z" id="d"/><path d="M217.04 165.07v195.98h-16V165.07h16z" id="e"/><path d="M363.02 165.07v195.98h-16V165.07h16z" id="f"/><path d="M363.02 361.05H55.06v-16h307.96v16z" id="g"/><path d="M71.06 289.56v15.3l41.69-33.8H98.58l-27.52 18.5z" id="h"/><path d="M71.06 328.11v13.03l94.98-70.08h-22.11l-72.87 57.05z" id="i"/><path d="M71.06 165.07v195.98h-16V165.07h16z" id="j"/><path d="M257.03 259.06l19 2 52.99-82.99-10.5 3-61.49 77.99z" id="k"/><path d="M363.02 181.07H55.06v-16h307.96v16z" id="l"/><path d="M363.02 271.06H55.06v-16h307.96v16z" id="m"/><path d="M211.51 562.02h-19.6a18.018 18.018 0 0 1-7.91-18.31c1.77-9.78 10.07-10.37 19.85-8.6 9.78 1.77 17.34 5.23 15.57 15.02-.88 4.89-3.74 9.2-7.91 11.89z" id="n"/><path d="M234.54 681.51l4.99 14.99c3 11.4 4.67 17.73 5 19 0 0 13 7 14 2l-5-6c-.13-.67-.8-4-2-10l15-26.99-31.99 7z" id="o"/><path d="M328.52 716.5s7 4 12 2l-3-7s3-25 18-28c15-2.99-36-7.99-36-7.99 1.8 8.19 8.1 36.89 9 40.99z" id="p"/><path d="M340.52 630.51s-34.99-5-37.99-6-37-3-55 0c0 0-49.99-38.99-21.99-55.99 0 0 11.99 6 14.99 2 1.13-1.5.57-3.42-.58-5.24-2.62-4-7.04-6.46-11.83-6.57-10.45-.39-29.17 3.36-20.67 37.53a66.497 66.497 0 0 0 13.07 25.7c4.56 5.61 9.27 13.38 7.02 19.57-4 11-5 28-5 28l-14 20.99s-8 26-8 27c0 0 10.88 3.12 13 1 2-2-3-6-3-6s4-8 11-10 25.99-9 28.99-12 66.99-20.99 84.99-4c10.1 9.65 20.79 18.67 32 27 0 0 5 7 11 7 0 0 7-9 0-10l-17-25s-3-17.99 12-20.99c8.27-1.66 13.19-1.79 15.95-1.58 2.22.19 4.42-.54 6.1-2.01a35.39 35.39 0 0 0 4.77-5.67c.74-1.05.93-2.4.49-3.62a95.933 95.933 0 0 1-3.32-11.12c-1-5-8.99-9-8.99-9s-2-14-5-10a61.143 61.143 0 0 1-5 6c-7.6.6-20 7-38 3z" id="q"/><path d="M577.99 499.03V43.09h355.96v455.94H577.99zm2-2h351.96V45.09H579.99v451.94z" id="r"/><path d="M909.95 71.08v194.98H601.99V71.08h307.96z" id="s"/><path d="M909.95 258.06v208.97H601.99V258.06h307.96z" id="t"/><path d="M763.97 70.08v195.98h-16V70.08h16z" id="u"/><path d="M909.95 70.08v195.98h-16V70.08h16z" id="v"/><path d="M909.95 266.06H601.99v-16h307.96v16z" id="w"/><path d="M617.99 194.57v15.31l41.69-33.81h-14.17l-27.52 18.5z" id="x"/><path d="M617.99 233.12v13.04l94.98-70.09h-22.11l-72.87 57.05z" id="y"/><path d="M617.99 70.08v195.98h-16V70.08h16z" id="z"/><path d="M803.96 164.07l19 2 52.99-82.99-10.5 3-61.49 77.99z" id="A"/><path d="M909.95 86.08H601.99v-16h307.96v16z" id="B"/><path d="M909.95 176.07H601.99v-16h307.96v16z" id="C"/><path d="M771.41 211.73c4.57 4.08 2.81 13.53-3.95 21.12-6.76 7.58-15.94 10.43-20.51 6.35-4.58-4.07-2.81-13.52 3.95-21.11 6.75-7.58 15.94-10.43 20.51-6.36z" id="D"/><path d="M794.07 211.41c-26.59 0-48.14 21.55-48.14 48.14s21.55 48.14 48.14 48.14 48.14-21.55 48.14-48.14-21.55-48.14-48.14-48.14z" id="E"/><path d="M608.63 241.99c-3.64.3-6.52 3.21-6.79 6.85-.16 2.3-1.5 20.75-1.67 23.06a7.415 7.415 0 0 0 6.85 7.92c.18.01.36.02.54.02h20.17v1.08h8.11v-1.08h4.33v1.08h8.11v-1.08h4.33c3.94 0 7.19-3.09 7.39-7.03.14-2.67 1.24-24.05 1.37-26.72a7.402 7.402 0 0 0-7.01-7.77 6.4 6.4 0 0 0-.98.01c-8.95.73-40.28 3.3-44.75 3.66z" id="F"/><path d="M618.53 281.46c-6.81 10.71-10.6 16.66-11.36 17.85 0 0 32.91 21.01 34.62 22.72 2.44 2.43 28.67 19.47 38.95 16.77 10.28-2.71 5.41-24.88 1.08-27.59-8.44-3.97-29.53-13.88-63.29-29.75z" id="G"/><path d="M716.98 465.92h84l-6.1-19.47-69.78 1.08-8.12 18.39z" id="H"/><path d="M776.49 318.24c-3.25 2.17 21.64 28.67 21.64 28.67.68-.61 4.11-3.68 10.28-9.19 1.94-12.66 3.02-19.69 3.24-21.1 0 0-9.74-13.52-5.41-25.42 4.33-11.91-29.75 7.03-29.75 7.03 0 4 3.24 17.85 0 20.01z" id="I"/><path d="M786.23 234.4c-19.12 0-34.62 15.5-34.62 34.62 0 19.12 15.5 34.62 34.62 34.62 19.12 0 34.62-15.5 34.62-34.62 0-19.12-15.5-34.62-34.62-34.62z" id="J"/><path d="M795.42 334.47s-13.52-20.55-21.09-22.18c0 0-14.61-.54-18.94 0 0 0-18.93-4.87-27.59-1.08v48.15s-9.73 56.8-5.41 71.4c0 0 1.09 17.31-1.08 18.93l49.23 16.23h48.68s0-15.68 4.87-19.47l4.33-83.85c1.62-3.14 14.61-28.24 16.23-31.37 0 0-2.71-11.91-14.07-12.45l-21.5-6.5c-.51 1.48-3.08 8.88-7.71 22.19h-5.95z" id="K"/><path d="M732.67 313.92c-2.92-1.63-4.54-2.53-4.87-2.71 0 0-9.19.54-10.82 0 0 0-22.17-7.03-30.29-3.25l-13.52-1.08s26.5 22.72-5.95 29.76c0 0 .54 2.7 8.65 4.32 8.12 1.63 9.74 3.25 12.98 5.95 3.25 2.71 9.74 5.41 14.07 6.49 4.33 1.09 18.39 10.28 20.56 8.12 2.16-2.16 5.95-9.74 5.95-9.74.43-5.05 1.51-17.67 3.24-37.86z" id="L"/><path d="M844.65 331.23s13.52 40.03 11.36 49.76c0 0-4.33 8.12-1.08 14.61 0 0 6.49 7.03 4.32 12.98 0 0-1.08 20.56-4.32 26.51 0 0-18.94 24.88-32.46-7.03-13.52-31.92 11.9-102.78 11.9-102.78 2.06 1.19 9.25 5.35 10.28 5.95z" id="M"/><path d="M844.65 391.81l-9.2-38.41s11.9-19.47 1.08-28.12c0 0 20.02-28.13 13.53-27.59-6.49.54-19.48 21.09-19.48 21.09s-2.97-.81-1.89-5.14c1.08-4.32 5.14-19.74 1.89-20.28-3.24-.54-9.73 22.72-9.73 22.72s-13.26 24.07-9.2 32.46c2.36 4.7 5.07 9.22 8.12 13.52.91 6.71 8.27 60.37 9.19 67.08 0 0 17.85 21.64 24.89-21.1-1.84-3.24-7.58-15.15-9.2-16.23z" id="N"/><path d="M655.86 245.76c0 1.49-2.67 2.7-5.95 2.7-3.29 0-5.95-1.21-5.95-2.7 0-1.5 2.66-2.71 5.95-2.71 3.28 0 5.95 1.21 5.95 2.71z" id="O"/><path d="M613.66 299.31h-7.57s-16.77-5.41-16.77-17.85c0 0 4.87-37.87 20.02-37.33l1.08 34.08c.61.25 3.66 1.5 9.17 3.74l.02 11.41-5.95 5.95z" id="P"/><path d="M811.38 246.03c0 8.66-13.8 15.68-30.83 15.68-17.03 0-30.84-7.02-30.84-15.68 0-8.67 13.81-15.69 30.84-15.69s30.83 7.02 30.83 15.69z" id="Q"/><path d="M824.9 265.5c0 3.29-1.21 5.95-2.7 5.95-1.49 0-2.71-2.66-2.71-5.95s1.22-5.95 2.71-5.95 2.7 2.66 2.7 5.95z" id="R"/><path d="M848.13 229.28c4.44 9.14 3.57 18.71-1.94 21.39-5.51 2.68-13.57-2.56-18.01-11.7-4.44-9.14-3.57-18.71 1.94-21.39 5.51-2.67 13.58 2.56 18.01 11.7z" id="S"/><path d="M741.22 549.93v2H601.24v-2h139.98z" id="T"/><path d="M703.22 551.43v18.5h-2v-18.5h2z" id="U"/><path d="M642.23 551.43v18.5h-2v-18.5h2z" id="V"/><path d="M627.23 0v2H487.25V0h139.98z" id="W"/><path d="M589.24 1.5V20h-2V1.5h2z" id="X"/><path d="M528.25 1.5V20h-2V1.5h2z" id="Y"/><path d="M568.24 250.97v2H428.26v-2h139.98z" id="Z"/><path d="M530.25 252.47v18.5h-2v-18.5h2z" id="aa"/><path d="M469.25 252.47v18.5h-2v-18.5h2z" id="ab"/><path d="M263.28 35v2H123.3v-2h139.98z" id="ac"/><path d="M225.28 36.5v18.49h-1.99V36.5h1.99z" id="ad"/><path d="M164.29 36.5v18.49h-2V36.5h2z" id="ae"/><path d="M798.21 623.92v2H658.23v-2h139.98z" id="af"/><path d="M698.22 605.92v18.5h-2v-18.5h2z" id="ag"/><path d="M759.22 605.92v18.5h-2v-18.5h2z" id="ah"/><path d="M580.24 662.92v1.99H440.26v-1.99h139.98z" id="ai"/><path d="M480.25 644.92v18.5h-2v-18.5h2z" id="aj"/><path d="M541.24 644.92v18.5h-2v-18.5h2z" id="ak"/><path d="M598.24 523.93v2H458.26v-2h139.98z" id="al"/><path d="M498.25 505.94v18.49h-2v-18.49h2z" id="am"/><path d="M559.24 505.94v18.49h-2v-18.49h2z" id="an"/><path d="M537.25 323.96v2H397.26v-2h139.99z" id="ao"/><path d="M437.26 305.96v18.5h-2v-18.5h2z" id="ap"/><path d="M498.25 305.96v18.5h-2v-18.5h2z" id="aq"/><path d="M439.26 103.99v2H299.28v-2h139.98z" id="ar"/><path d="M339.27 85.99v18.5h-2v-18.5h2z" id="as"/><path d="M400.26 85.99v18.5h-2v-18.5h2z" id="at"/><path d="M173.29 652.92v2H33.31v-2h139.98z" id="au"/><path d="M73.3 634.92v18.5h-2v-18.5h2z" id="av"/><path d="M134.3 634.92v18.5h-2v-18.5h2z" id="aw"/><path d="M1004.19 579.93v2H864.2v-2h139.99z" id="ax"/><path d="M904.2 561.93v18.5h-2v-18.5h2z" id="ay"/><path d="M965.19 561.93v18.5h-2v-18.5h2z" id="az"/><path d="M487 406.49a9 9 0 1 0 .001 18.001A9 9 0 0 0 487 406.49z" id="aA"/><path d="M811.96 534.48a9 9 0 1 0 .001 18.001 9 9 0 0 0-.001-18.001z" id="aB"/><path d="M496 173.52c-9.39 0-17 7.61-17 17s7.61 17 17 17 17-7.61 17-17-7.61-17-17-17z" id="aC"/></defs><use xlink:href="#a" fill="#2f2e41"/><use xlink:href="#a" fill-opacity="0" stroke="#000" stroke-opacity="0"/><use xlink:href="#b" fill="#2f2e41"/><use xlink:href="#b" fill-opacity="0" stroke="#000" stroke-opacity="0"/><use xlink:href="#c" fill="#f2f2f2"/><use xlink:href="#c" fill-opacity="0" stroke="#000" stroke-opacity="0"/><use xlink:href="#d" fill="#f2f2f2"/><use xlink:href="#d" fill-opacity="0" stroke="#000" stroke-opacity="0"/><use xlink:href="#e" fill="#2f2e41"/><use xlink:href="#e" fill-opacity="0" stroke="#000" stroke-opacity="0"/><use xlink:href="#f" fill="#2f2e41"/><use xlink:href="#f" fill-opacity="0" stroke="#000" stroke-opacity="0"/><use xlink:href="#g" fill="#2f2e41"/><use xlink:href="#g" fill-opacity="0" stroke="#000" stroke-opacity="0"/><use xlink:href="#h" fill="#fff"/><use xlink:href="#h" fill-opacity="0" stroke="#000" stroke-opacity="0"/><use xlink:href="#i" fill="#fff"/><use xlink:href="#i" fill-opacity="0" stroke="#000" stroke-opacity="0"/><use xlink:href="#j" fill="#2f2e41"/><use xlink:href="#j" fill-opacity="0" stroke="#000" stroke-opacity="0"/><use xlink:href="#k" fill="#fff"/><use xlink:href="#k" fill-opacity="0" stroke="#000" stroke-opacity="0"/><use xlink:href="#l" fill="#2f2e41"/><use xlink:href="#l" fill-opacity="0" stroke="#000" stroke-opacity="0"/><use xlink:href="#m" fill="#2f2e41"/><use xlink:href="#m" fill-opacity="0" stroke="#000" stroke-opacity="0"/><use xlink:href="#n" fill="#fff"/><use xlink:href="#n" fill-opacity="0" stroke="#000" stroke-opacity="0"/><use xlink:href="#o" fill="#3f3d56"/><use xlink:href="#o" fill-opacity="0" stroke="#000" stroke-opacity="0"/><use xlink:href="#p" fill="#3f3d56"/><use xlink:href="#p" fill-opacity="0" stroke="#000" stroke-opacity="0"/><use xlink:href="#q" fill="#3f3d56"/><use xlink:href="#q" fill-opacity="0" stroke="#000" stroke-opacity="0"/><use xlink:href="#r" fill="#2f2e41"/><use xlink:href="#r" fill-opacity="0" stroke="#000" stroke-opacity="0"/><use xlink:href="#s" fill="#f2f2f2"/><use xlink:href="#s" fill-opacity="0" stroke="#000" stroke-opacity="0"/><use xlink:href="#t" fill="#f2f2f2"/><use xlink:href="#t" fill-opacity="0" stroke="#000" stroke-opacity="0"/><use xlink:href="#u" fill="#2f2e41"/><use xlink:href="#u" fill-opacity="0" stroke="#000" stroke-opacity="0"/><use xlink:href="#v" fill="#2f2e41"/><use xlink:href="#v" fill-opacity="0" stroke="#000" stroke-opacity="0"/><use xlink:href="#w" fill="#2f2e41"/><use xlink:href="#w" fill-opacity="0" stroke="#000" stroke-opacity="0"/><use xlink:href="#x" fill="#fff"/><use xlink:href="#x" fill-opacity="0" stroke="#000" stroke-opacity="0"/><use xlink:href="#y" fill="#fff"/><use xlink:href="#y" fill-opacity="0" stroke="#000" stroke-opacity="0"/><use xlink:href="#z" fill="#2f2e41"/><use xlink:href="#z" fill-opacity="0" stroke="#000" stroke-opacity="0"/><use xlink:href="#A" fill="#fff"/><use xlink:href="#A" fill-opacity="0" stroke="#000" stroke-opacity="0"/><use xlink:href="#B" fill="#2f2e41"/><use xlink:href="#B" fill-opacity="0" stroke="#000" stroke-opacity="0"/><use xlink:href="#C" fill="#2f2e41"/><use xlink:href="#C" fill-opacity="0" stroke="#000" stroke-opacity="0"/><use xlink:href="#D" fill="#ff6584"/><use xlink:href="#D" fill-opacity="0" stroke="#000" stroke-opacity="0"/><use xlink:href="#E" fill="#ff6584"/><use xlink:href="#E" fill-opacity="0" stroke="#000" stroke-opacity="0"/><use xlink:href="#F" fill="#3f3d56"/><use xlink:href="#F" fill-opacity="0" stroke="#000" stroke-opacity="0"/><use xlink:href="#G" fill="#ffb8b8"/><use xlink:href="#G" fill-opacity="0" stroke="#000" stroke-opacity="0"/><use xlink:href="#H" fill="#2f2e41"/><use xlink:href="#H" fill-opacity="0" stroke="#000" stroke-opacity="0"/><use xlink:href="#I" fill="#ffb8b8"/><use xlink:href="#I" fill-opacity="0" stroke="#000" stroke-opacity="0"/><use xlink:href="#J" fill="#ffb8b8"/><use xlink:href="#J" fill-opacity="0" stroke="#000" stroke-opacity="0"/><use xlink:href="#K" fill="#6c63ff"/><use xlink:href="#K" fill-opacity="0" stroke="#000" stroke-opacity="0"/><use xlink:href="#L" fill="#6c63ff"/><use xlink:href="#L" fill-opacity="0" stroke="#000" stroke-opacity="0"/><use xlink:href="#M" fill="#6c63ff"/><use xlink:href="#M" fill-opacity="0" stroke="#000" stroke-opacity="0"/><use xlink:href="#N" fill="#ffb8b8"/><use xlink:href="#N" fill-opacity="0" stroke="#000" stroke-opacity="0"/><use xlink:href="#O" fill="#6c63ff"/><use xlink:href="#O" fill-opacity="0" stroke="#000" stroke-opacity="0"/><use xlink:href="#P" fill="#ffb8b8"/><use xlink:href="#P" fill-opacity="0" stroke="#000" stroke-opacity="0"/><use xlink:href="#Q" fill="#ff6584"/><use xlink:href="#Q" fill-opacity="0" stroke="#000" stroke-opacity="0"/><use xlink:href="#R" fill="#ffb8b8"/><use xlink:href="#R" fill-opacity="0" stroke="#000" stroke-opacity="0"/><use xlink:href="#S" fill="#ff6584"/><use xlink:href="#S" fill-opacity="0" stroke="#000" stroke-opacity="0"/><use xlink:href="#T" fill="#f2f2f2"/><use xlink:href="#T" fill-opacity="0" stroke="#000" stroke-opacity="0"/><use xlink:href="#U" fill="#f2f2f2"/><use xlink:href="#U" fill-opacity="0" stroke="#000" stroke-opacity="0"/><use xlink:href="#V" fill="#f2f2f2"/><use xlink:href="#V" fill-opacity="0" stroke="#000" stroke-opacity="0"/><use xlink:href="#W" fill="#f2f2f2"/><use xlink:href="#W" fill-opacity="0" stroke="#000" stroke-opacity="0"/><use xlink:href="#X" fill="#f2f2f2"/><use xlink:href="#X" fill-opacity="0" stroke="#000" stroke-opacity="0"/><use xlink:href="#Y" fill="#f2f2f2"/><use xlink:href="#Y" fill-opacity="0" stroke="#000" stroke-opacity="0"/><use xlink:href="#Z" fill="#f2f2f2"/><use xlink:href="#Z" fill-opacity="0" stroke="#000" stroke-opacity="0"/><use xlink:href="#aa" fill="#f2f2f2"/><use xlink:href="#aa" fill-opacity="0" stroke="#000" stroke-opacity="0"/><use xlink:href="#ab" fill="#f2f2f2"/><use xlink:href="#ab" fill-opacity="0" stroke="#000" stroke-opacity="0"/><use xlink:href="#ac" fill="#f2f2f2"/><use xlink:href="#ac" fill-opacity="0" stroke="#000" stroke-opacity="0"/><use xlink:href="#ad" fill="#f2f2f2"/><use xlink:href="#ad" fill-opacity="0" stroke="#000" stroke-opacity="0"/><use xlink:href="#ae" fill="#f2f2f2"/><use xlink:href="#ae" fill-opacity="0" stroke="#000" stroke-opacity="0"/><use xlink:href="#af" fill="#f2f2f2"/><use xlink:href="#af" fill-opacity="0" stroke="#000" stroke-opacity="0"/><use xlink:href="#ag" fill="#f2f2f2"/><use xlink:href="#ag" fill-opacity="0" stroke="#000" stroke-opacity="0"/><use xlink:href="#ah" fill="#f2f2f2"/><use xlink:href="#ah" fill-opacity="0" stroke="#000" stroke-opacity="0"/><use xlink:href="#ai" fill="#f2f2f2"/><use xlink:href="#ai" fill-opacity="0" stroke="#000" stroke-opacity="0"/><use xlink:href="#aj" fill="#f2f2f2"/><use xlink:href="#aj" fill-opacity="0" stroke="#000" stroke-opacity="0"/><use xlink:href="#ak" fill="#f2f2f2"/><use xlink:href="#ak" fill-opacity="0" stroke="#000" stroke-opacity="0"/><use xlink:href="#al" fill="#f2f2f2"/><use xlink:href="#al" fill-opacity="0" stroke="#000" stroke-opacity="0"/><use xlink:href="#am" fill="#f2f2f2"/><use xlink:href="#am" fill-opacity="0" stroke="#000" stroke-opacity="0"/><use xlink:href="#an" fill="#f2f2f2"/><use xlink:href="#an" fill-opacity="0" stroke="#000" stroke-opacity="0"/><use xlink:href="#ao" fill="#f2f2f2"/><use xlink:href="#ao" fill-opacity="0" stroke="#000" stroke-opacity="0"/><use xlink:href="#ap" fill="#f2f2f2"/><use xlink:href="#ap" fill-opacity="0" stroke="#000" stroke-opacity="0"/><use xlink:href="#aq" fill="#f2f2f2"/><use xlink:href="#aq" fill-opacity="0" stroke="#000" stroke-opacity="0"/><use xlink:href="#ar" fill="#f2f2f2"/><use xlink:href="#ar" fill-opacity="0" stroke="#000" stroke-opacity="0"/><use xlink:href="#as" fill="#f2f2f2"/><use xlink:href="#as" fill-opacity="0" stroke="#000" stroke-opacity="0"/><use xlink:href="#at" fill="#f2f2f2"/><use xlink:href="#at" fill-opacity="0" stroke="#000" stroke-opacity="0"/><use xlink:href="#au" fill="#f2f2f2"/><use xlink:href="#au" fill-opacity="0" stroke="#000" stroke-opacity="0"/><use xlink:href="#av" fill="#f2f2f2"/><use xlink:href="#av" fill-opacity="0" stroke="#000" stroke-opacity="0"/><use xlink:href="#aw" fill="#f2f2f2"/><use xlink:href="#aw" fill-opacity="0" stroke="#000" stroke-opacity="0"/><use xlink:href="#ax" fill="#f2f2f2"/><use xlink:href="#ax" fill-opacity="0" stroke="#000" stroke-opacity="0"/><use xlink:href="#ay" fill="#f2f2f2"/><use xlink:href="#ay" fill-opacity="0" stroke="#000" stroke-opacity="0"/><use xlink:href="#az" fill="#f2f2f2"/><use xlink:href="#az" fill-opacity="0" stroke="#000" stroke-opacity="0"/><use xlink:href="#aA" fill="#f2f2f2"/><use xlink:href="#aA" fill-opacity="0" stroke="#000" stroke-opacity="0"/><use xlink:href="#aB" fill="#f2f2f2"/><use xlink:href="#aB" fill-opacity="0" stroke="#000" stroke-opacity="0"/><use xlink:href="#aC" fill="#f2f2f2"/><use xlink:href="#aC" fill-opacity="0" stroke="#000" stroke-opacity="0"/></svg>